<mxfile host="app.diagrams.net" agent="Mozilla/5.0 (Windows NT 10.0; Win64; x64) AppleWebKit/537.36 (KHTML, like Gecko) Chrome/131.0.0.0 Safari/537.36" version="26.0.6">
  <diagram name="Page-1" id="8SwprvUhtXKsLwDliLoG">
    <mxGraphModel dx="1229" dy="791" grid="1" gridSize="10" guides="1" tooltips="1" connect="1" arrows="1" fold="1" page="1" pageScale="1" pageWidth="850" pageHeight="1100" math="0" shadow="0">
      <root>
        <mxCell id="0" />
        <mxCell id="1" parent="0" />
        <mxCell id="YjWWDXaZrfKZDx-xZvoM-2" value="" style="rounded=0;whiteSpace=wrap;html=1;fillColor=#2e7956;" vertex="1" parent="1">
          <mxGeometry x="20" y="210" width="990" height="180" as="geometry" />
        </mxCell>
        <mxCell id="YjWWDXaZrfKZDx-xZvoM-3" value="" style="rounded=0;whiteSpace=wrap;html=1;fillColor=#e5dc7b;" vertex="1" parent="1">
          <mxGeometry x="50" y="370" width="10" height="20" as="geometry" />
        </mxCell>
        <mxCell id="YjWWDXaZrfKZDx-xZvoM-4" value="" style="rounded=0;whiteSpace=wrap;html=1;fillColor=#e5dc7b;" vertex="1" parent="1">
          <mxGeometry x="60" y="370" width="10" height="20" as="geometry" />
        </mxCell>
        <mxCell id="YjWWDXaZrfKZDx-xZvoM-5" value="" style="rounded=0;whiteSpace=wrap;html=1;fillColor=#e5dc7b;" vertex="1" parent="1">
          <mxGeometry x="70" y="370" width="10" height="20" as="geometry" />
        </mxCell>
        <mxCell id="YjWWDXaZrfKZDx-xZvoM-6" value="" style="rounded=0;whiteSpace=wrap;html=1;fillColor=#e5dc7b;" vertex="1" parent="1">
          <mxGeometry x="80" y="370" width="10" height="20" as="geometry" />
        </mxCell>
        <mxCell id="YjWWDXaZrfKZDx-xZvoM-7" value="" style="rounded=0;whiteSpace=wrap;html=1;fillColor=#e5dc7b;" vertex="1" parent="1">
          <mxGeometry x="90" y="370" width="10" height="20" as="geometry" />
        </mxCell>
        <mxCell id="YjWWDXaZrfKZDx-xZvoM-8" value="" style="rounded=0;whiteSpace=wrap;html=1;fillColor=#e5dc7b;" vertex="1" parent="1">
          <mxGeometry x="100" y="370" width="10" height="20" as="geometry" />
        </mxCell>
        <mxCell id="YjWWDXaZrfKZDx-xZvoM-9" value="" style="rounded=0;whiteSpace=wrap;html=1;fillColor=#e5dc7b;" vertex="1" parent="1">
          <mxGeometry x="110" y="370" width="10" height="20" as="geometry" />
        </mxCell>
        <mxCell id="YjWWDXaZrfKZDx-xZvoM-10" value="" style="rounded=0;whiteSpace=wrap;html=1;fillColor=#e5dc7b;" vertex="1" parent="1">
          <mxGeometry x="120" y="370" width="10" height="20" as="geometry" />
        </mxCell>
        <mxCell id="YjWWDXaZrfKZDx-xZvoM-11" value="" style="rounded=0;whiteSpace=wrap;html=1;fillColor=#e5dc7b;" vertex="1" parent="1">
          <mxGeometry x="130" y="370" width="10" height="20" as="geometry" />
        </mxCell>
        <mxCell id="YjWWDXaZrfKZDx-xZvoM-12" value="" style="rounded=0;whiteSpace=wrap;html=1;fillColor=#e5dc7b;" vertex="1" parent="1">
          <mxGeometry x="140" y="370" width="10" height="20" as="geometry" />
        </mxCell>
        <mxCell id="YjWWDXaZrfKZDx-xZvoM-13" value="" style="rounded=0;whiteSpace=wrap;html=1;fillColor=#e5dc7b;" vertex="1" parent="1">
          <mxGeometry x="150" y="370" width="10" height="20" as="geometry" />
        </mxCell>
        <mxCell id="YjWWDXaZrfKZDx-xZvoM-14" value="" style="rounded=0;whiteSpace=wrap;html=1;fillColor=#e5dc7b;" vertex="1" parent="1">
          <mxGeometry x="160" y="370" width="10" height="20" as="geometry" />
        </mxCell>
        <mxCell id="YjWWDXaZrfKZDx-xZvoM-15" value="" style="rounded=0;whiteSpace=wrap;html=1;fillColor=#e5dc7b;" vertex="1" parent="1">
          <mxGeometry x="170" y="370" width="10" height="20" as="geometry" />
        </mxCell>
        <mxCell id="YjWWDXaZrfKZDx-xZvoM-16" value="" style="rounded=0;whiteSpace=wrap;html=1;fillColor=#e5dc7b;" vertex="1" parent="1">
          <mxGeometry x="180" y="370" width="10" height="20" as="geometry" />
        </mxCell>
        <mxCell id="YjWWDXaZrfKZDx-xZvoM-17" value="" style="rounded=0;whiteSpace=wrap;html=1;fillColor=#e5dc7b;" vertex="1" parent="1">
          <mxGeometry x="190" y="370" width="10" height="20" as="geometry" />
        </mxCell>
        <mxCell id="YjWWDXaZrfKZDx-xZvoM-18" value="" style="rounded=0;whiteSpace=wrap;html=1;fillColor=#e5dc7b;" vertex="1" parent="1">
          <mxGeometry x="200" y="370" width="10" height="20" as="geometry" />
        </mxCell>
        <mxCell id="YjWWDXaZrfKZDx-xZvoM-19" value="" style="rounded=0;whiteSpace=wrap;html=1;fillColor=#e5dc7b;" vertex="1" parent="1">
          <mxGeometry x="210" y="370" width="10" height="20" as="geometry" />
        </mxCell>
        <mxCell id="YjWWDXaZrfKZDx-xZvoM-20" value="" style="rounded=0;whiteSpace=wrap;html=1;fillColor=#e5dc7b;" vertex="1" parent="1">
          <mxGeometry x="220" y="370" width="10" height="20" as="geometry" />
        </mxCell>
        <mxCell id="YjWWDXaZrfKZDx-xZvoM-21" value="" style="rounded=0;whiteSpace=wrap;html=1;fillColor=#e5dc7b;" vertex="1" parent="1">
          <mxGeometry x="230" y="370" width="10" height="20" as="geometry" />
        </mxCell>
        <mxCell id="YjWWDXaZrfKZDx-xZvoM-22" value="" style="rounded=0;whiteSpace=wrap;html=1;fillColor=#e5dc7b;" vertex="1" parent="1">
          <mxGeometry x="240" y="370" width="10" height="20" as="geometry" />
        </mxCell>
        <mxCell id="YjWWDXaZrfKZDx-xZvoM-23" value="" style="rounded=0;whiteSpace=wrap;html=1;fillColor=#e5dc7b;" vertex="1" parent="1">
          <mxGeometry x="250" y="370" width="10" height="20" as="geometry" />
        </mxCell>
        <mxCell id="YjWWDXaZrfKZDx-xZvoM-24" value="" style="rounded=0;whiteSpace=wrap;html=1;fillColor=#e5dc7b;" vertex="1" parent="1">
          <mxGeometry x="260" y="370" width="10" height="20" as="geometry" />
        </mxCell>
        <mxCell id="YjWWDXaZrfKZDx-xZvoM-25" value="" style="rounded=0;whiteSpace=wrap;html=1;fillColor=#e5dc7b;" vertex="1" parent="1">
          <mxGeometry x="270" y="370" width="10" height="20" as="geometry" />
        </mxCell>
        <mxCell id="YjWWDXaZrfKZDx-xZvoM-26" value="" style="rounded=0;whiteSpace=wrap;html=1;fillColor=#e5dc7b;" vertex="1" parent="1">
          <mxGeometry x="280" y="370" width="10" height="20" as="geometry" />
        </mxCell>
        <mxCell id="YjWWDXaZrfKZDx-xZvoM-27" value="" style="rounded=0;whiteSpace=wrap;html=1;fillColor=#e5dc7b;" vertex="1" parent="1">
          <mxGeometry x="290" y="370" width="10" height="20" as="geometry" />
        </mxCell>
        <mxCell id="YjWWDXaZrfKZDx-xZvoM-28" value="" style="rounded=0;whiteSpace=wrap;html=1;fillColor=#e5dc7b;" vertex="1" parent="1">
          <mxGeometry x="300" y="370" width="10" height="20" as="geometry" />
        </mxCell>
        <mxCell id="YjWWDXaZrfKZDx-xZvoM-29" value="" style="rounded=0;whiteSpace=wrap;html=1;fillColor=#e5dc7b;" vertex="1" parent="1">
          <mxGeometry x="310" y="370" width="10" height="20" as="geometry" />
        </mxCell>
        <mxCell id="YjWWDXaZrfKZDx-xZvoM-30" value="" style="rounded=0;whiteSpace=wrap;html=1;fillColor=#e5dc7b;" vertex="1" parent="1">
          <mxGeometry x="320" y="370" width="10" height="20" as="geometry" />
        </mxCell>
        <mxCell id="YjWWDXaZrfKZDx-xZvoM-31" value="" style="rounded=0;whiteSpace=wrap;html=1;fillColor=#e5dc7b;" vertex="1" parent="1">
          <mxGeometry x="330" y="370" width="10" height="20" as="geometry" />
        </mxCell>
        <mxCell id="YjWWDXaZrfKZDx-xZvoM-32" value="" style="rounded=0;whiteSpace=wrap;html=1;fillColor=#e5dc7b;" vertex="1" parent="1">
          <mxGeometry x="340" y="370" width="10" height="20" as="geometry" />
        </mxCell>
        <mxCell id="YjWWDXaZrfKZDx-xZvoM-33" value="" style="rounded=0;whiteSpace=wrap;html=1;fillColor=#e5dc7b;" vertex="1" parent="1">
          <mxGeometry x="350" y="370" width="10" height="20" as="geometry" />
        </mxCell>
        <mxCell id="YjWWDXaZrfKZDx-xZvoM-34" value="" style="rounded=0;whiteSpace=wrap;html=1;fillColor=#e5dc7b;" vertex="1" parent="1">
          <mxGeometry x="360" y="370" width="10" height="20" as="geometry" />
        </mxCell>
        <mxCell id="YjWWDXaZrfKZDx-xZvoM-35" value="" style="rounded=0;whiteSpace=wrap;html=1;fillColor=#e5dc7b;" vertex="1" parent="1">
          <mxGeometry x="370" y="370" width="10" height="20" as="geometry" />
        </mxCell>
        <mxCell id="YjWWDXaZrfKZDx-xZvoM-36" value="" style="rounded=0;whiteSpace=wrap;html=1;fillColor=#e5dc7b;" vertex="1" parent="1">
          <mxGeometry x="380" y="370" width="10" height="20" as="geometry" />
        </mxCell>
        <mxCell id="YjWWDXaZrfKZDx-xZvoM-37" value="" style="rounded=0;whiteSpace=wrap;html=1;fillColor=#e5dc7b;" vertex="1" parent="1">
          <mxGeometry x="390" y="370" width="10" height="20" as="geometry" />
        </mxCell>
        <mxCell id="YjWWDXaZrfKZDx-xZvoM-38" value="" style="rounded=0;whiteSpace=wrap;html=1;fillColor=#e5dc7b;" vertex="1" parent="1">
          <mxGeometry x="400" y="370" width="10" height="20" as="geometry" />
        </mxCell>
        <mxCell id="YjWWDXaZrfKZDx-xZvoM-39" value="" style="rounded=0;whiteSpace=wrap;html=1;fillColor=#e5dc7b;" vertex="1" parent="1">
          <mxGeometry x="410" y="370" width="10" height="20" as="geometry" />
        </mxCell>
        <mxCell id="YjWWDXaZrfKZDx-xZvoM-40" value="" style="rounded=0;whiteSpace=wrap;html=1;fillColor=#e5dc7b;" vertex="1" parent="1">
          <mxGeometry x="420" y="370" width="10" height="20" as="geometry" />
        </mxCell>
        <mxCell id="YjWWDXaZrfKZDx-xZvoM-41" value="" style="rounded=0;whiteSpace=wrap;html=1;fillColor=#e5dc7b;" vertex="1" parent="1">
          <mxGeometry x="550" y="370" width="10" height="20" as="geometry" />
        </mxCell>
        <mxCell id="YjWWDXaZrfKZDx-xZvoM-42" value="" style="rounded=0;whiteSpace=wrap;html=1;fillColor=#e5dc7b;" vertex="1" parent="1">
          <mxGeometry x="560" y="370" width="10" height="20" as="geometry" />
        </mxCell>
        <mxCell id="YjWWDXaZrfKZDx-xZvoM-43" value="" style="rounded=0;whiteSpace=wrap;html=1;fillColor=#e5dc7b;" vertex="1" parent="1">
          <mxGeometry x="570" y="370" width="10" height="20" as="geometry" />
        </mxCell>
        <mxCell id="YjWWDXaZrfKZDx-xZvoM-44" value="" style="rounded=0;whiteSpace=wrap;html=1;fillColor=#e5dc7b;" vertex="1" parent="1">
          <mxGeometry x="580" y="370" width="10" height="20" as="geometry" />
        </mxCell>
        <mxCell id="YjWWDXaZrfKZDx-xZvoM-45" value="" style="rounded=0;whiteSpace=wrap;html=1;fillColor=#e5dc7b;" vertex="1" parent="1">
          <mxGeometry x="590" y="370" width="10" height="20" as="geometry" />
        </mxCell>
        <mxCell id="YjWWDXaZrfKZDx-xZvoM-46" value="" style="rounded=0;whiteSpace=wrap;html=1;fillColor=#e5dc7b;" vertex="1" parent="1">
          <mxGeometry x="650" y="370" width="10" height="20" as="geometry" />
        </mxCell>
        <mxCell id="YjWWDXaZrfKZDx-xZvoM-47" value="" style="rounded=0;whiteSpace=wrap;html=1;fillColor=#e5dc7b;" vertex="1" parent="1">
          <mxGeometry x="660" y="370" width="10" height="20" as="geometry" />
        </mxCell>
        <mxCell id="YjWWDXaZrfKZDx-xZvoM-48" value="" style="rounded=0;whiteSpace=wrap;html=1;fillColor=#e5dc7b;" vertex="1" parent="1">
          <mxGeometry x="670" y="370" width="10" height="20" as="geometry" />
        </mxCell>
        <mxCell id="YjWWDXaZrfKZDx-xZvoM-49" value="" style="rounded=0;whiteSpace=wrap;html=1;fillColor=#e5dc7b;" vertex="1" parent="1">
          <mxGeometry x="680" y="370" width="10" height="20" as="geometry" />
        </mxCell>
        <mxCell id="YjWWDXaZrfKZDx-xZvoM-50" value="" style="rounded=0;whiteSpace=wrap;html=1;fillColor=#e5dc7b;" vertex="1" parent="1">
          <mxGeometry x="690" y="370" width="10" height="20" as="geometry" />
        </mxCell>
        <mxCell id="YjWWDXaZrfKZDx-xZvoM-51" value="" style="rounded=0;whiteSpace=wrap;html=1;fillColor=#e5dc7b;" vertex="1" parent="1">
          <mxGeometry x="700" y="370" width="10" height="20" as="geometry" />
        </mxCell>
        <mxCell id="YjWWDXaZrfKZDx-xZvoM-52" value="" style="rounded=0;whiteSpace=wrap;html=1;fillColor=#e5dc7b;" vertex="1" parent="1">
          <mxGeometry x="710" y="370" width="10" height="20" as="geometry" />
        </mxCell>
        <mxCell id="YjWWDXaZrfKZDx-xZvoM-53" value="" style="rounded=0;whiteSpace=wrap;html=1;fillColor=#e5dc7b;" vertex="1" parent="1">
          <mxGeometry x="720" y="370" width="10" height="20" as="geometry" />
        </mxCell>
        <mxCell id="YjWWDXaZrfKZDx-xZvoM-54" value="" style="rounded=0;whiteSpace=wrap;html=1;fillColor=#e5dc7b;" vertex="1" parent="1">
          <mxGeometry x="730" y="370" width="10" height="20" as="geometry" />
        </mxCell>
        <mxCell id="YjWWDXaZrfKZDx-xZvoM-55" value="" style="rounded=0;whiteSpace=wrap;html=1;fillColor=#e5dc7b;" vertex="1" parent="1">
          <mxGeometry x="740" y="370" width="10" height="20" as="geometry" />
        </mxCell>
        <mxCell id="YjWWDXaZrfKZDx-xZvoM-56" value="" style="rounded=0;whiteSpace=wrap;html=1;fillColor=#e5dc7b;" vertex="1" parent="1">
          <mxGeometry x="750" y="370" width="10" height="20" as="geometry" />
        </mxCell>
        <mxCell id="YjWWDXaZrfKZDx-xZvoM-57" value="" style="rounded=0;whiteSpace=wrap;html=1;fillColor=#e5dc7b;" vertex="1" parent="1">
          <mxGeometry x="760" y="370" width="10" height="20" as="geometry" />
        </mxCell>
        <mxCell id="YjWWDXaZrfKZDx-xZvoM-58" value="" style="rounded=0;whiteSpace=wrap;html=1;fillColor=#e5dc7b;" vertex="1" parent="1">
          <mxGeometry x="770" y="370" width="10" height="20" as="geometry" />
        </mxCell>
        <mxCell id="YjWWDXaZrfKZDx-xZvoM-59" value="" style="rounded=0;whiteSpace=wrap;html=1;fillColor=#e5dc7b;" vertex="1" parent="1">
          <mxGeometry x="780" y="370" width="10" height="20" as="geometry" />
        </mxCell>
        <mxCell id="YjWWDXaZrfKZDx-xZvoM-60" value="" style="rounded=0;whiteSpace=wrap;html=1;fillColor=#e5dc7b;" vertex="1" parent="1">
          <mxGeometry x="790" y="370" width="10" height="20" as="geometry" />
        </mxCell>
        <mxCell id="YjWWDXaZrfKZDx-xZvoM-61" value="" style="rounded=0;whiteSpace=wrap;html=1;fillColor=#e5dc7b;" vertex="1" parent="1">
          <mxGeometry x="800" y="370" width="10" height="20" as="geometry" />
        </mxCell>
        <mxCell id="YjWWDXaZrfKZDx-xZvoM-62" value="" style="rounded=0;whiteSpace=wrap;html=1;fillColor=#e5dc7b;" vertex="1" parent="1">
          <mxGeometry x="810" y="370" width="10" height="20" as="geometry" />
        </mxCell>
        <mxCell id="YjWWDXaZrfKZDx-xZvoM-63" value="" style="rounded=0;whiteSpace=wrap;html=1;fillColor=#e5dc7b;" vertex="1" parent="1">
          <mxGeometry x="820" y="370" width="10" height="20" as="geometry" />
        </mxCell>
        <mxCell id="YjWWDXaZrfKZDx-xZvoM-64" value="" style="rounded=0;whiteSpace=wrap;html=1;fillColor=#e5dc7b;" vertex="1" parent="1">
          <mxGeometry x="830" y="370" width="10" height="20" as="geometry" />
        </mxCell>
        <mxCell id="YjWWDXaZrfKZDx-xZvoM-65" value="" style="rounded=0;whiteSpace=wrap;html=1;fillColor=#e5dc7b;" vertex="1" parent="1">
          <mxGeometry x="840" y="370" width="10" height="20" as="geometry" />
        </mxCell>
        <mxCell id="YjWWDXaZrfKZDx-xZvoM-66" value="" style="rounded=0;whiteSpace=wrap;html=1;fillColor=#e5dc7b;" vertex="1" parent="1">
          <mxGeometry x="850" y="370" width="10" height="20" as="geometry" />
        </mxCell>
        <mxCell id="YjWWDXaZrfKZDx-xZvoM-67" value="" style="rounded=0;whiteSpace=wrap;html=1;fillColor=#e5dc7b;" vertex="1" parent="1">
          <mxGeometry x="860" y="370" width="10" height="20" as="geometry" />
        </mxCell>
        <mxCell id="YjWWDXaZrfKZDx-xZvoM-68" value="" style="rounded=0;whiteSpace=wrap;html=1;fillColor=#e5dc7b;" vertex="1" parent="1">
          <mxGeometry x="870" y="370" width="10" height="20" as="geometry" />
        </mxCell>
        <mxCell id="YjWWDXaZrfKZDx-xZvoM-69" value="" style="rounded=0;whiteSpace=wrap;html=1;fillColor=#e5dc7b;" vertex="1" parent="1">
          <mxGeometry x="880" y="370" width="10" height="20" as="geometry" />
        </mxCell>
        <mxCell id="YjWWDXaZrfKZDx-xZvoM-70" value="" style="rounded=0;whiteSpace=wrap;html=1;fillColor=#e5dc7b;" vertex="1" parent="1">
          <mxGeometry x="890" y="370" width="10" height="20" as="geometry" />
        </mxCell>
        <mxCell id="YjWWDXaZrfKZDx-xZvoM-71" value="" style="rounded=0;whiteSpace=wrap;html=1;fillColor=#e5dc7b;" vertex="1" parent="1">
          <mxGeometry x="900" y="370" width="10" height="20" as="geometry" />
        </mxCell>
        <mxCell id="YjWWDXaZrfKZDx-xZvoM-72" value="" style="rounded=0;whiteSpace=wrap;html=1;fillColor=#e5dc7b;" vertex="1" parent="1">
          <mxGeometry x="910" y="370" width="10" height="20" as="geometry" />
        </mxCell>
        <mxCell id="YjWWDXaZrfKZDx-xZvoM-73" value="" style="rounded=0;whiteSpace=wrap;html=1;fillColor=#e5dc7b;" vertex="1" parent="1">
          <mxGeometry x="920" y="370" width="10" height="20" as="geometry" />
        </mxCell>
        <mxCell id="YjWWDXaZrfKZDx-xZvoM-74" value="" style="rounded=0;whiteSpace=wrap;html=1;fillColor=#e5dc7b;" vertex="1" parent="1">
          <mxGeometry x="930" y="370" width="10" height="20" as="geometry" />
        </mxCell>
        <mxCell id="YjWWDXaZrfKZDx-xZvoM-75" value="" style="rounded=0;whiteSpace=wrap;html=1;fillColor=#e5dc7b;" vertex="1" parent="1">
          <mxGeometry x="940" y="370" width="10" height="20" as="geometry" />
        </mxCell>
        <mxCell id="YjWWDXaZrfKZDx-xZvoM-76" value="" style="rounded=0;whiteSpace=wrap;html=1;fillColor=#e5dc7b;" vertex="1" parent="1">
          <mxGeometry x="950" y="370" width="10" height="20" as="geometry" />
        </mxCell>
        <mxCell id="YjWWDXaZrfKZDx-xZvoM-77" value="" style="rounded=0;whiteSpace=wrap;html=1;fillColor=#e5dc7b;" vertex="1" parent="1">
          <mxGeometry x="960" y="370" width="10" height="20" as="geometry" />
        </mxCell>
        <mxCell id="YjWWDXaZrfKZDx-xZvoM-78" value="" style="rounded=0;whiteSpace=wrap;html=1;fillColor=#e5dc7b;" vertex="1" parent="1">
          <mxGeometry x="970" y="370" width="10" height="20" as="geometry" />
        </mxCell>
        <mxCell id="YjWWDXaZrfKZDx-xZvoM-79" value="" style="rounded=0;whiteSpace=wrap;html=1;fillColor=#e5dc7b;" vertex="1" parent="1">
          <mxGeometry x="980" y="370" width="10" height="20" as="geometry" />
        </mxCell>
        <mxCell id="YjWWDXaZrfKZDx-xZvoM-80" value="" style="shape=or;whiteSpace=wrap;html=1;direction=north;" vertex="1" parent="1">
          <mxGeometry x="615" y="360" width="20" height="30" as="geometry" />
        </mxCell>
        <mxCell id="YjWWDXaZrfKZDx-xZvoM-81" value="" style="rounded=0;whiteSpace=wrap;html=1;fillColor=#e5dc7b;" vertex="1" parent="1">
          <mxGeometry x="520" y="370" width="10" height="20" as="geometry" />
        </mxCell>
        <mxCell id="YjWWDXaZrfKZDx-xZvoM-82" value="" style="rounded=0;whiteSpace=wrap;html=1;fillColor=#e5dc7b;" vertex="1" parent="1">
          <mxGeometry x="530" y="370" width="10" height="20" as="geometry" />
        </mxCell>
        <mxCell id="YjWWDXaZrfKZDx-xZvoM-83" value="" style="rounded=0;whiteSpace=wrap;html=1;fillColor=#e5dc7b;" vertex="1" parent="1">
          <mxGeometry x="540" y="370" width="10" height="20" as="geometry" />
        </mxCell>
        <mxCell id="YjWWDXaZrfKZDx-xZvoM-84" value="" style="rounded=0;whiteSpace=wrap;html=1;fillColor=#e5dc7b;" vertex="1" parent="1">
          <mxGeometry x="430" y="370" width="10" height="20" as="geometry" />
        </mxCell>
        <mxCell id="YjWWDXaZrfKZDx-xZvoM-85" value="" style="rounded=0;whiteSpace=wrap;html=1;fillColor=#e5dc7b;" vertex="1" parent="1">
          <mxGeometry x="440" y="370" width="10" height="20" as="geometry" />
        </mxCell>
        <mxCell id="YjWWDXaZrfKZDx-xZvoM-86" value="&lt;font style=&quot;font-size: 14px;&quot; color=&quot;#ababab&quot;&gt;&lt;b&gt;RCD&lt;/b&gt;&lt;/font&gt;" style="rounded=0;whiteSpace=wrap;html=1;strokeColor=#454744;fillColor=#464646;direction=south;" vertex="1" parent="1">
          <mxGeometry x="480" y="254" width="80" height="70" as="geometry" />
        </mxCell>
        <mxCell id="YjWWDXaZrfKZDx-xZvoM-87" value="" style="rounded=0;whiteSpace=wrap;html=1;fillColor=#e5dc7b;" vertex="1" parent="1">
          <mxGeometry x="450" y="370" width="10" height="20" as="geometry" />
        </mxCell>
        <mxCell id="YjWWDXaZrfKZDx-xZvoM-88" value="" style="rounded=0;whiteSpace=wrap;html=1;fillColor=#e5dc7b;" vertex="1" parent="1">
          <mxGeometry x="460" y="370" width="10" height="20" as="geometry" />
        </mxCell>
        <mxCell id="YjWWDXaZrfKZDx-xZvoM-89" value="" style="rounded=0;whiteSpace=wrap;html=1;fillColor=#e5dc7b;" vertex="1" parent="1">
          <mxGeometry x="470" y="370" width="10" height="20" as="geometry" />
        </mxCell>
        <mxCell id="YjWWDXaZrfKZDx-xZvoM-90" value="" style="rounded=0;whiteSpace=wrap;html=1;fillColor=#e5dc7b;" vertex="1" parent="1">
          <mxGeometry x="480" y="370" width="10" height="20" as="geometry" />
        </mxCell>
        <mxCell id="YjWWDXaZrfKZDx-xZvoM-91" value="" style="rounded=0;whiteSpace=wrap;html=1;fillColor=#e5dc7b;" vertex="1" parent="1">
          <mxGeometry x="490" y="370" width="10" height="20" as="geometry" />
        </mxCell>
        <mxCell id="YjWWDXaZrfKZDx-xZvoM-92" value="" style="rounded=0;whiteSpace=wrap;html=1;fillColor=#e5dc7b;" vertex="1" parent="1">
          <mxGeometry x="500" y="370" width="10" height="20" as="geometry" />
        </mxCell>
        <mxCell id="YjWWDXaZrfKZDx-xZvoM-93" value="" style="rounded=0;whiteSpace=wrap;html=1;fillColor=#e5dc7b;" vertex="1" parent="1">
          <mxGeometry x="510" y="370" width="10" height="20" as="geometry" />
        </mxCell>
        <mxCell id="YjWWDXaZrfKZDx-xZvoM-110" value="&lt;font style=&quot;font-size: 14px;&quot; color=&quot;#ababab&quot;&gt;DQ&lt;/font&gt;&lt;div style=&quot;font-size: 14px;&quot;&gt;&lt;font color=&quot;#ababab&quot;&gt;x8&lt;/font&gt;&lt;/div&gt;" style="rounded=0;whiteSpace=wrap;html=1;strokeColor=#454744;fillColor=#464646;" vertex="1" parent="1">
          <mxGeometry x="60" y="254" width="60" height="80" as="geometry" />
        </mxCell>
        <mxCell id="YjWWDXaZrfKZDx-xZvoM-111" value="&lt;font style=&quot;font-size: 14px;&quot; color=&quot;#ababab&quot;&gt;DQ&lt;/font&gt;&lt;div style=&quot;font-size: 14px;&quot;&gt;&lt;font color=&quot;#ababab&quot;&gt;x8&lt;/font&gt;&lt;/div&gt;" style="rounded=0;whiteSpace=wrap;html=1;strokeColor=#454744;fillColor=#464646;" vertex="1" parent="1">
          <mxGeometry x="140" y="254" width="60" height="80" as="geometry" />
        </mxCell>
        <mxCell id="YjWWDXaZrfKZDx-xZvoM-112" value="&lt;font style=&quot;font-size: 14px;&quot; color=&quot;#ababab&quot;&gt;DQ&lt;/font&gt;&lt;div style=&quot;font-size: 14px;&quot;&gt;&lt;font color=&quot;#ababab&quot;&gt;x8&lt;/font&gt;&lt;/div&gt;" style="rounded=0;whiteSpace=wrap;html=1;strokeColor=#454744;fillColor=#464646;" vertex="1" parent="1">
          <mxGeometry x="220" y="254" width="60" height="80" as="geometry" />
        </mxCell>
        <mxCell id="YjWWDXaZrfKZDx-xZvoM-113" value="&lt;font style=&quot;font-size: 14px;&quot; color=&quot;#ababab&quot;&gt;DQ&lt;/font&gt;&lt;div style=&quot;font-size: 14px;&quot;&gt;&lt;font color=&quot;#ababab&quot;&gt;x8&lt;/font&gt;&lt;/div&gt;" style="rounded=0;whiteSpace=wrap;html=1;strokeColor=#454744;fillColor=#464646;" vertex="1" parent="1">
          <mxGeometry x="300" y="254" width="60" height="80" as="geometry" />
        </mxCell>
        <mxCell id="YjWWDXaZrfKZDx-xZvoM-114" value="&lt;font style=&quot;font-size: 14px;&quot; color=&quot;#ababab&quot;&gt;ECC&lt;/font&gt;&lt;div style=&quot;font-size: 14px;&quot;&gt;&lt;font color=&quot;#ababab&quot;&gt;x8&lt;/font&gt;&lt;/div&gt;" style="rounded=0;whiteSpace=wrap;html=1;strokeColor=#454744;fillColor=#464646;" vertex="1" parent="1">
          <mxGeometry x="380" y="254" width="60" height="80" as="geometry" />
        </mxCell>
        <mxCell id="YjWWDXaZrfKZDx-xZvoM-116" value="&lt;font style=&quot;font-size: 14px;&quot; color=&quot;#ababab&quot;&gt;DQ&lt;/font&gt;&lt;div style=&quot;font-size: 14px;&quot;&gt;&lt;font color=&quot;#ababab&quot;&gt;x8&lt;/font&gt;&lt;/div&gt;" style="rounded=0;whiteSpace=wrap;html=1;strokeColor=#454744;fillColor=#464646;" vertex="1" parent="1">
          <mxGeometry x="680" y="254" width="60" height="80" as="geometry" />
        </mxCell>
        <mxCell id="YjWWDXaZrfKZDx-xZvoM-117" value="&lt;font style=&quot;font-size: 14px;&quot; color=&quot;#ababab&quot;&gt;DQ&lt;/font&gt;&lt;div style=&quot;font-size: 14px;&quot;&gt;&lt;font color=&quot;#ababab&quot;&gt;x8&lt;/font&gt;&lt;/div&gt;" style="rounded=0;whiteSpace=wrap;html=1;strokeColor=#454744;fillColor=#464646;" vertex="1" parent="1">
          <mxGeometry x="760" y="254" width="60" height="80" as="geometry" />
        </mxCell>
        <mxCell id="YjWWDXaZrfKZDx-xZvoM-118" value="&lt;font style=&quot;font-size: 14px;&quot; color=&quot;#ababab&quot;&gt;DQ&lt;/font&gt;&lt;div style=&quot;font-size: 14px;&quot;&gt;&lt;font color=&quot;#ababab&quot;&gt;x8&lt;/font&gt;&lt;/div&gt;" style="rounded=0;whiteSpace=wrap;html=1;strokeColor=#454744;fillColor=#464646;" vertex="1" parent="1">
          <mxGeometry x="840" y="254" width="60" height="80" as="geometry" />
        </mxCell>
        <mxCell id="YjWWDXaZrfKZDx-xZvoM-119" value="&lt;font style=&quot;font-size: 14px;&quot; color=&quot;#ababab&quot;&gt;DQ&lt;/font&gt;&lt;div style=&quot;font-size: 14px;&quot;&gt;&lt;font color=&quot;#ababab&quot;&gt;x8&lt;/font&gt;&lt;/div&gt;" style="rounded=0;whiteSpace=wrap;html=1;strokeColor=#454744;fillColor=#464646;" vertex="1" parent="1">
          <mxGeometry x="920" y="254" width="60" height="80" as="geometry" />
        </mxCell>
        <mxCell id="YjWWDXaZrfKZDx-xZvoM-159" value="" style="rounded=0;whiteSpace=wrap;html=1;fillColor=#2e7956;" vertex="1" parent="1">
          <mxGeometry x="20" y="410" width="990" height="180" as="geometry" />
        </mxCell>
        <mxCell id="YjWWDXaZrfKZDx-xZvoM-160" value="" style="rounded=0;whiteSpace=wrap;html=1;fillColor=#e5dc7b;" vertex="1" parent="1">
          <mxGeometry x="50" y="410" width="10" height="20" as="geometry" />
        </mxCell>
        <mxCell id="YjWWDXaZrfKZDx-xZvoM-161" value="" style="rounded=0;whiteSpace=wrap;html=1;fillColor=#e5dc7b;" vertex="1" parent="1">
          <mxGeometry x="60" y="410" width="10" height="20" as="geometry" />
        </mxCell>
        <mxCell id="YjWWDXaZrfKZDx-xZvoM-162" value="" style="rounded=0;whiteSpace=wrap;html=1;fillColor=#e5dc7b;" vertex="1" parent="1">
          <mxGeometry x="70" y="410" width="10" height="20" as="geometry" />
        </mxCell>
        <mxCell id="YjWWDXaZrfKZDx-xZvoM-163" value="" style="rounded=0;whiteSpace=wrap;html=1;fillColor=#e5dc7b;" vertex="1" parent="1">
          <mxGeometry x="80" y="410" width="10" height="20" as="geometry" />
        </mxCell>
        <mxCell id="YjWWDXaZrfKZDx-xZvoM-164" value="" style="rounded=0;whiteSpace=wrap;html=1;fillColor=#e5dc7b;" vertex="1" parent="1">
          <mxGeometry x="90" y="410" width="10" height="20" as="geometry" />
        </mxCell>
        <mxCell id="YjWWDXaZrfKZDx-xZvoM-165" value="" style="rounded=0;whiteSpace=wrap;html=1;fillColor=#e5dc7b;" vertex="1" parent="1">
          <mxGeometry x="100" y="410" width="10" height="20" as="geometry" />
        </mxCell>
        <mxCell id="YjWWDXaZrfKZDx-xZvoM-166" value="" style="rounded=0;whiteSpace=wrap;html=1;fillColor=#e5dc7b;" vertex="1" parent="1">
          <mxGeometry x="110" y="410" width="10" height="20" as="geometry" />
        </mxCell>
        <mxCell id="YjWWDXaZrfKZDx-xZvoM-167" value="" style="rounded=0;whiteSpace=wrap;html=1;fillColor=#e5dc7b;" vertex="1" parent="1">
          <mxGeometry x="120" y="410" width="10" height="20" as="geometry" />
        </mxCell>
        <mxCell id="YjWWDXaZrfKZDx-xZvoM-168" value="" style="rounded=0;whiteSpace=wrap;html=1;fillColor=#e5dc7b;" vertex="1" parent="1">
          <mxGeometry x="130" y="410" width="10" height="20" as="geometry" />
        </mxCell>
        <mxCell id="YjWWDXaZrfKZDx-xZvoM-169" value="" style="rounded=0;whiteSpace=wrap;html=1;fillColor=#e5dc7b;" vertex="1" parent="1">
          <mxGeometry x="140" y="410" width="10" height="20" as="geometry" />
        </mxCell>
        <mxCell id="YjWWDXaZrfKZDx-xZvoM-170" value="" style="rounded=0;whiteSpace=wrap;html=1;fillColor=#e5dc7b;" vertex="1" parent="1">
          <mxGeometry x="150" y="410" width="10" height="20" as="geometry" />
        </mxCell>
        <mxCell id="YjWWDXaZrfKZDx-xZvoM-171" value="" style="rounded=0;whiteSpace=wrap;html=1;fillColor=#e5dc7b;" vertex="1" parent="1">
          <mxGeometry x="160" y="410" width="10" height="20" as="geometry" />
        </mxCell>
        <mxCell id="YjWWDXaZrfKZDx-xZvoM-172" value="" style="rounded=0;whiteSpace=wrap;html=1;fillColor=#e5dc7b;" vertex="1" parent="1">
          <mxGeometry x="170" y="410" width="10" height="20" as="geometry" />
        </mxCell>
        <mxCell id="YjWWDXaZrfKZDx-xZvoM-173" value="" style="rounded=0;whiteSpace=wrap;html=1;fillColor=#e5dc7b;" vertex="1" parent="1">
          <mxGeometry x="180" y="410" width="10" height="20" as="geometry" />
        </mxCell>
        <mxCell id="YjWWDXaZrfKZDx-xZvoM-174" value="" style="rounded=0;whiteSpace=wrap;html=1;fillColor=#e5dc7b;" vertex="1" parent="1">
          <mxGeometry x="190" y="410" width="10" height="20" as="geometry" />
        </mxCell>
        <mxCell id="YjWWDXaZrfKZDx-xZvoM-175" value="" style="rounded=0;whiteSpace=wrap;html=1;fillColor=#e5dc7b;" vertex="1" parent="1">
          <mxGeometry x="200" y="410" width="10" height="20" as="geometry" />
        </mxCell>
        <mxCell id="YjWWDXaZrfKZDx-xZvoM-176" value="" style="rounded=0;whiteSpace=wrap;html=1;fillColor=#e5dc7b;" vertex="1" parent="1">
          <mxGeometry x="210" y="410" width="10" height="20" as="geometry" />
        </mxCell>
        <mxCell id="YjWWDXaZrfKZDx-xZvoM-177" value="" style="rounded=0;whiteSpace=wrap;html=1;fillColor=#e5dc7b;" vertex="1" parent="1">
          <mxGeometry x="220" y="410" width="10" height="20" as="geometry" />
        </mxCell>
        <mxCell id="YjWWDXaZrfKZDx-xZvoM-178" value="" style="rounded=0;whiteSpace=wrap;html=1;fillColor=#e5dc7b;" vertex="1" parent="1">
          <mxGeometry x="230" y="410" width="10" height="20" as="geometry" />
        </mxCell>
        <mxCell id="YjWWDXaZrfKZDx-xZvoM-179" value="" style="rounded=0;whiteSpace=wrap;html=1;fillColor=#e5dc7b;" vertex="1" parent="1">
          <mxGeometry x="240" y="410" width="10" height="20" as="geometry" />
        </mxCell>
        <mxCell id="YjWWDXaZrfKZDx-xZvoM-180" value="" style="rounded=0;whiteSpace=wrap;html=1;fillColor=#e5dc7b;" vertex="1" parent="1">
          <mxGeometry x="250" y="410" width="10" height="20" as="geometry" />
        </mxCell>
        <mxCell id="YjWWDXaZrfKZDx-xZvoM-181" value="" style="rounded=0;whiteSpace=wrap;html=1;fillColor=#e5dc7b;" vertex="1" parent="1">
          <mxGeometry x="260" y="410" width="10" height="20" as="geometry" />
        </mxCell>
        <mxCell id="YjWWDXaZrfKZDx-xZvoM-182" value="" style="rounded=0;whiteSpace=wrap;html=1;fillColor=#e5dc7b;" vertex="1" parent="1">
          <mxGeometry x="270" y="410" width="10" height="20" as="geometry" />
        </mxCell>
        <mxCell id="YjWWDXaZrfKZDx-xZvoM-183" value="" style="rounded=0;whiteSpace=wrap;html=1;fillColor=#e5dc7b;" vertex="1" parent="1">
          <mxGeometry x="280" y="410" width="10" height="20" as="geometry" />
        </mxCell>
        <mxCell id="YjWWDXaZrfKZDx-xZvoM-184" value="" style="rounded=0;whiteSpace=wrap;html=1;fillColor=#e5dc7b;" vertex="1" parent="1">
          <mxGeometry x="290" y="410" width="10" height="20" as="geometry" />
        </mxCell>
        <mxCell id="YjWWDXaZrfKZDx-xZvoM-185" value="" style="rounded=0;whiteSpace=wrap;html=1;fillColor=#e5dc7b;" vertex="1" parent="1">
          <mxGeometry x="300" y="410" width="10" height="20" as="geometry" />
        </mxCell>
        <mxCell id="YjWWDXaZrfKZDx-xZvoM-186" value="" style="rounded=0;whiteSpace=wrap;html=1;fillColor=#e5dc7b;" vertex="1" parent="1">
          <mxGeometry x="310" y="410" width="10" height="20" as="geometry" />
        </mxCell>
        <mxCell id="YjWWDXaZrfKZDx-xZvoM-187" value="" style="rounded=0;whiteSpace=wrap;html=1;fillColor=#e5dc7b;" vertex="1" parent="1">
          <mxGeometry x="320" y="410" width="10" height="20" as="geometry" />
        </mxCell>
        <mxCell id="YjWWDXaZrfKZDx-xZvoM-188" value="" style="rounded=0;whiteSpace=wrap;html=1;fillColor=#e5dc7b;" vertex="1" parent="1">
          <mxGeometry x="330" y="410" width="10" height="20" as="geometry" />
        </mxCell>
        <mxCell id="YjWWDXaZrfKZDx-xZvoM-189" value="" style="rounded=0;whiteSpace=wrap;html=1;fillColor=#e5dc7b;" vertex="1" parent="1">
          <mxGeometry x="340" y="410" width="10" height="20" as="geometry" />
        </mxCell>
        <mxCell id="YjWWDXaZrfKZDx-xZvoM-190" value="" style="rounded=0;whiteSpace=wrap;html=1;fillColor=#e5dc7b;" vertex="1" parent="1">
          <mxGeometry x="350" y="410" width="10" height="20" as="geometry" />
        </mxCell>
        <mxCell id="YjWWDXaZrfKZDx-xZvoM-191" value="" style="rounded=0;whiteSpace=wrap;html=1;fillColor=#e5dc7b;" vertex="1" parent="1">
          <mxGeometry x="360" y="410" width="10" height="20" as="geometry" />
        </mxCell>
        <mxCell id="YjWWDXaZrfKZDx-xZvoM-192" value="" style="rounded=0;whiteSpace=wrap;html=1;fillColor=#e5dc7b;" vertex="1" parent="1">
          <mxGeometry x="370" y="410" width="10" height="20" as="geometry" />
        </mxCell>
        <mxCell id="YjWWDXaZrfKZDx-xZvoM-193" value="" style="rounded=0;whiteSpace=wrap;html=1;fillColor=#e5dc7b;" vertex="1" parent="1">
          <mxGeometry x="380" y="410" width="10" height="20" as="geometry" />
        </mxCell>
        <mxCell id="YjWWDXaZrfKZDx-xZvoM-194" value="" style="rounded=0;whiteSpace=wrap;html=1;fillColor=#e5dc7b;" vertex="1" parent="1">
          <mxGeometry x="390" y="410" width="10" height="20" as="geometry" />
        </mxCell>
        <mxCell id="YjWWDXaZrfKZDx-xZvoM-195" value="" style="rounded=0;whiteSpace=wrap;html=1;fillColor=#e5dc7b;" vertex="1" parent="1">
          <mxGeometry x="400" y="410" width="10" height="20" as="geometry" />
        </mxCell>
        <mxCell id="YjWWDXaZrfKZDx-xZvoM-196" value="" style="rounded=0;whiteSpace=wrap;html=1;fillColor=#e5dc7b;" vertex="1" parent="1">
          <mxGeometry x="410" y="410" width="10" height="20" as="geometry" />
        </mxCell>
        <mxCell id="YjWWDXaZrfKZDx-xZvoM-197" value="" style="rounded=0;whiteSpace=wrap;html=1;fillColor=#e5dc7b;" vertex="1" parent="1">
          <mxGeometry x="420" y="410" width="10" height="20" as="geometry" />
        </mxCell>
        <mxCell id="YjWWDXaZrfKZDx-xZvoM-198" value="" style="rounded=0;whiteSpace=wrap;html=1;fillColor=#e5dc7b;" vertex="1" parent="1">
          <mxGeometry x="550" y="410" width="10" height="20" as="geometry" />
        </mxCell>
        <mxCell id="YjWWDXaZrfKZDx-xZvoM-199" value="" style="rounded=0;whiteSpace=wrap;html=1;fillColor=#e5dc7b;" vertex="1" parent="1">
          <mxGeometry x="560" y="410" width="10" height="20" as="geometry" />
        </mxCell>
        <mxCell id="YjWWDXaZrfKZDx-xZvoM-200" value="" style="rounded=0;whiteSpace=wrap;html=1;fillColor=#e5dc7b;" vertex="1" parent="1">
          <mxGeometry x="570" y="410" width="10" height="20" as="geometry" />
        </mxCell>
        <mxCell id="YjWWDXaZrfKZDx-xZvoM-201" value="" style="rounded=0;whiteSpace=wrap;html=1;fillColor=#e5dc7b;" vertex="1" parent="1">
          <mxGeometry x="580" y="410" width="10" height="20" as="geometry" />
        </mxCell>
        <mxCell id="YjWWDXaZrfKZDx-xZvoM-202" value="" style="rounded=0;whiteSpace=wrap;html=1;fillColor=#e5dc7b;" vertex="1" parent="1">
          <mxGeometry x="590" y="410" width="10" height="20" as="geometry" />
        </mxCell>
        <mxCell id="YjWWDXaZrfKZDx-xZvoM-203" value="" style="rounded=0;whiteSpace=wrap;html=1;fillColor=#e5dc7b;" vertex="1" parent="1">
          <mxGeometry x="650" y="410" width="10" height="20" as="geometry" />
        </mxCell>
        <mxCell id="YjWWDXaZrfKZDx-xZvoM-204" value="" style="rounded=0;whiteSpace=wrap;html=1;fillColor=#e5dc7b;" vertex="1" parent="1">
          <mxGeometry x="660" y="410" width="10" height="20" as="geometry" />
        </mxCell>
        <mxCell id="YjWWDXaZrfKZDx-xZvoM-205" value="" style="rounded=0;whiteSpace=wrap;html=1;fillColor=#e5dc7b;" vertex="1" parent="1">
          <mxGeometry x="670" y="410" width="10" height="20" as="geometry" />
        </mxCell>
        <mxCell id="YjWWDXaZrfKZDx-xZvoM-206" value="" style="rounded=0;whiteSpace=wrap;html=1;fillColor=#e5dc7b;" vertex="1" parent="1">
          <mxGeometry x="680" y="410" width="10" height="20" as="geometry" />
        </mxCell>
        <mxCell id="YjWWDXaZrfKZDx-xZvoM-207" value="" style="rounded=0;whiteSpace=wrap;html=1;fillColor=#e5dc7b;" vertex="1" parent="1">
          <mxGeometry x="690" y="410" width="10" height="20" as="geometry" />
        </mxCell>
        <mxCell id="YjWWDXaZrfKZDx-xZvoM-208" value="" style="rounded=0;whiteSpace=wrap;html=1;fillColor=#e5dc7b;" vertex="1" parent="1">
          <mxGeometry x="700" y="410" width="10" height="20" as="geometry" />
        </mxCell>
        <mxCell id="YjWWDXaZrfKZDx-xZvoM-209" value="" style="rounded=0;whiteSpace=wrap;html=1;fillColor=#e5dc7b;" vertex="1" parent="1">
          <mxGeometry x="710" y="410" width="10" height="20" as="geometry" />
        </mxCell>
        <mxCell id="YjWWDXaZrfKZDx-xZvoM-210" value="" style="rounded=0;whiteSpace=wrap;html=1;fillColor=#e5dc7b;" vertex="1" parent="1">
          <mxGeometry x="720" y="410" width="10" height="20" as="geometry" />
        </mxCell>
        <mxCell id="YjWWDXaZrfKZDx-xZvoM-211" value="" style="rounded=0;whiteSpace=wrap;html=1;fillColor=#e5dc7b;" vertex="1" parent="1">
          <mxGeometry x="730" y="410" width="10" height="20" as="geometry" />
        </mxCell>
        <mxCell id="YjWWDXaZrfKZDx-xZvoM-212" value="" style="rounded=0;whiteSpace=wrap;html=1;fillColor=#e5dc7b;" vertex="1" parent="1">
          <mxGeometry x="740" y="410" width="10" height="20" as="geometry" />
        </mxCell>
        <mxCell id="YjWWDXaZrfKZDx-xZvoM-213" value="" style="rounded=0;whiteSpace=wrap;html=1;fillColor=#e5dc7b;" vertex="1" parent="1">
          <mxGeometry x="750" y="410" width="10" height="20" as="geometry" />
        </mxCell>
        <mxCell id="YjWWDXaZrfKZDx-xZvoM-214" value="" style="rounded=0;whiteSpace=wrap;html=1;fillColor=#e5dc7b;" vertex="1" parent="1">
          <mxGeometry x="760" y="410" width="10" height="20" as="geometry" />
        </mxCell>
        <mxCell id="YjWWDXaZrfKZDx-xZvoM-215" value="" style="rounded=0;whiteSpace=wrap;html=1;fillColor=#e5dc7b;" vertex="1" parent="1">
          <mxGeometry x="770" y="410" width="10" height="20" as="geometry" />
        </mxCell>
        <mxCell id="YjWWDXaZrfKZDx-xZvoM-216" value="" style="rounded=0;whiteSpace=wrap;html=1;fillColor=#e5dc7b;" vertex="1" parent="1">
          <mxGeometry x="780" y="410" width="10" height="20" as="geometry" />
        </mxCell>
        <mxCell id="YjWWDXaZrfKZDx-xZvoM-217" value="" style="rounded=0;whiteSpace=wrap;html=1;fillColor=#e5dc7b;" vertex="1" parent="1">
          <mxGeometry x="790" y="410" width="10" height="20" as="geometry" />
        </mxCell>
        <mxCell id="YjWWDXaZrfKZDx-xZvoM-218" value="" style="rounded=0;whiteSpace=wrap;html=1;fillColor=#e5dc7b;" vertex="1" parent="1">
          <mxGeometry x="800" y="410" width="10" height="20" as="geometry" />
        </mxCell>
        <mxCell id="YjWWDXaZrfKZDx-xZvoM-219" value="" style="rounded=0;whiteSpace=wrap;html=1;fillColor=#e5dc7b;" vertex="1" parent="1">
          <mxGeometry x="810" y="410" width="10" height="20" as="geometry" />
        </mxCell>
        <mxCell id="YjWWDXaZrfKZDx-xZvoM-220" value="" style="rounded=0;whiteSpace=wrap;html=1;fillColor=#e5dc7b;" vertex="1" parent="1">
          <mxGeometry x="820" y="410" width="10" height="20" as="geometry" />
        </mxCell>
        <mxCell id="YjWWDXaZrfKZDx-xZvoM-221" value="" style="rounded=0;whiteSpace=wrap;html=1;fillColor=#e5dc7b;" vertex="1" parent="1">
          <mxGeometry x="830" y="410" width="10" height="20" as="geometry" />
        </mxCell>
        <mxCell id="YjWWDXaZrfKZDx-xZvoM-222" value="" style="rounded=0;whiteSpace=wrap;html=1;fillColor=#e5dc7b;" vertex="1" parent="1">
          <mxGeometry x="840" y="410" width="10" height="20" as="geometry" />
        </mxCell>
        <mxCell id="YjWWDXaZrfKZDx-xZvoM-223" value="" style="rounded=0;whiteSpace=wrap;html=1;fillColor=#e5dc7b;" vertex="1" parent="1">
          <mxGeometry x="850" y="410" width="10" height="20" as="geometry" />
        </mxCell>
        <mxCell id="YjWWDXaZrfKZDx-xZvoM-224" value="" style="rounded=0;whiteSpace=wrap;html=1;fillColor=#e5dc7b;" vertex="1" parent="1">
          <mxGeometry x="860" y="410" width="10" height="20" as="geometry" />
        </mxCell>
        <mxCell id="YjWWDXaZrfKZDx-xZvoM-225" value="" style="rounded=0;whiteSpace=wrap;html=1;fillColor=#e5dc7b;" vertex="1" parent="1">
          <mxGeometry x="870" y="410" width="10" height="20" as="geometry" />
        </mxCell>
        <mxCell id="YjWWDXaZrfKZDx-xZvoM-226" value="" style="rounded=0;whiteSpace=wrap;html=1;fillColor=#e5dc7b;" vertex="1" parent="1">
          <mxGeometry x="880" y="410" width="10" height="20" as="geometry" />
        </mxCell>
        <mxCell id="YjWWDXaZrfKZDx-xZvoM-227" value="" style="rounded=0;whiteSpace=wrap;html=1;fillColor=#e5dc7b;" vertex="1" parent="1">
          <mxGeometry x="890" y="410" width="10" height="20" as="geometry" />
        </mxCell>
        <mxCell id="YjWWDXaZrfKZDx-xZvoM-228" value="" style="rounded=0;whiteSpace=wrap;html=1;fillColor=#e5dc7b;" vertex="1" parent="1">
          <mxGeometry x="900" y="410" width="10" height="20" as="geometry" />
        </mxCell>
        <mxCell id="YjWWDXaZrfKZDx-xZvoM-229" value="" style="rounded=0;whiteSpace=wrap;html=1;fillColor=#e5dc7b;" vertex="1" parent="1">
          <mxGeometry x="910" y="410" width="10" height="20" as="geometry" />
        </mxCell>
        <mxCell id="YjWWDXaZrfKZDx-xZvoM-230" value="" style="rounded=0;whiteSpace=wrap;html=1;fillColor=#e5dc7b;" vertex="1" parent="1">
          <mxGeometry x="920" y="410" width="10" height="20" as="geometry" />
        </mxCell>
        <mxCell id="YjWWDXaZrfKZDx-xZvoM-231" value="" style="rounded=0;whiteSpace=wrap;html=1;fillColor=#e5dc7b;" vertex="1" parent="1">
          <mxGeometry x="930" y="410" width="10" height="20" as="geometry" />
        </mxCell>
        <mxCell id="YjWWDXaZrfKZDx-xZvoM-232" value="" style="rounded=0;whiteSpace=wrap;html=1;fillColor=#e5dc7b;" vertex="1" parent="1">
          <mxGeometry x="940" y="410" width="10" height="20" as="geometry" />
        </mxCell>
        <mxCell id="YjWWDXaZrfKZDx-xZvoM-233" value="" style="rounded=0;whiteSpace=wrap;html=1;fillColor=#e5dc7b;" vertex="1" parent="1">
          <mxGeometry x="950" y="410" width="10" height="20" as="geometry" />
        </mxCell>
        <mxCell id="YjWWDXaZrfKZDx-xZvoM-234" value="" style="rounded=0;whiteSpace=wrap;html=1;fillColor=#e5dc7b;" vertex="1" parent="1">
          <mxGeometry x="960" y="410" width="10" height="20" as="geometry" />
        </mxCell>
        <mxCell id="YjWWDXaZrfKZDx-xZvoM-235" value="" style="rounded=0;whiteSpace=wrap;html=1;fillColor=#e5dc7b;" vertex="1" parent="1">
          <mxGeometry x="970" y="410" width="10" height="20" as="geometry" />
        </mxCell>
        <mxCell id="YjWWDXaZrfKZDx-xZvoM-236" value="" style="rounded=0;whiteSpace=wrap;html=1;fillColor=#e5dc7b;" vertex="1" parent="1">
          <mxGeometry x="980" y="410" width="10" height="20" as="geometry" />
        </mxCell>
        <mxCell id="YjWWDXaZrfKZDx-xZvoM-237" value="" style="shape=or;whiteSpace=wrap;html=1;direction=north;rotation=-180;" vertex="1" parent="1">
          <mxGeometry x="615" y="410" width="20" height="30" as="geometry" />
        </mxCell>
        <mxCell id="YjWWDXaZrfKZDx-xZvoM-238" value="" style="rounded=0;whiteSpace=wrap;html=1;fillColor=#e5dc7b;" vertex="1" parent="1">
          <mxGeometry x="520" y="410" width="10" height="20" as="geometry" />
        </mxCell>
        <mxCell id="YjWWDXaZrfKZDx-xZvoM-239" value="" style="rounded=0;whiteSpace=wrap;html=1;fillColor=#e5dc7b;" vertex="1" parent="1">
          <mxGeometry x="530" y="410" width="10" height="20" as="geometry" />
        </mxCell>
        <mxCell id="YjWWDXaZrfKZDx-xZvoM-240" value="" style="rounded=0;whiteSpace=wrap;html=1;fillColor=#e5dc7b;" vertex="1" parent="1">
          <mxGeometry x="540" y="410" width="10" height="20" as="geometry" />
        </mxCell>
        <mxCell id="YjWWDXaZrfKZDx-xZvoM-241" value="" style="rounded=0;whiteSpace=wrap;html=1;fillColor=#e5dc7b;" vertex="1" parent="1">
          <mxGeometry x="430" y="410" width="10" height="20" as="geometry" />
        </mxCell>
        <mxCell id="YjWWDXaZrfKZDx-xZvoM-242" value="" style="rounded=0;whiteSpace=wrap;html=1;fillColor=#e5dc7b;" vertex="1" parent="1">
          <mxGeometry x="440" y="410" width="10" height="20" as="geometry" />
        </mxCell>
        <mxCell id="YjWWDXaZrfKZDx-xZvoM-244" value="" style="rounded=0;whiteSpace=wrap;html=1;fillColor=#e5dc7b;" vertex="1" parent="1">
          <mxGeometry x="450" y="410" width="10" height="20" as="geometry" />
        </mxCell>
        <mxCell id="YjWWDXaZrfKZDx-xZvoM-245" value="" style="rounded=0;whiteSpace=wrap;html=1;fillColor=#e5dc7b;" vertex="1" parent="1">
          <mxGeometry x="460" y="410" width="10" height="20" as="geometry" />
        </mxCell>
        <mxCell id="YjWWDXaZrfKZDx-xZvoM-246" value="" style="rounded=0;whiteSpace=wrap;html=1;fillColor=#e5dc7b;" vertex="1" parent="1">
          <mxGeometry x="470" y="410" width="10" height="20" as="geometry" />
        </mxCell>
        <mxCell id="YjWWDXaZrfKZDx-xZvoM-247" value="" style="rounded=0;whiteSpace=wrap;html=1;fillColor=#e5dc7b;" vertex="1" parent="1">
          <mxGeometry x="480" y="410" width="10" height="20" as="geometry" />
        </mxCell>
        <mxCell id="YjWWDXaZrfKZDx-xZvoM-248" value="" style="rounded=0;whiteSpace=wrap;html=1;fillColor=#e5dc7b;" vertex="1" parent="1">
          <mxGeometry x="490" y="410" width="10" height="20" as="geometry" />
        </mxCell>
        <mxCell id="YjWWDXaZrfKZDx-xZvoM-249" value="" style="rounded=0;whiteSpace=wrap;html=1;fillColor=#e5dc7b;" vertex="1" parent="1">
          <mxGeometry x="500" y="410" width="10" height="20" as="geometry" />
        </mxCell>
        <mxCell id="YjWWDXaZrfKZDx-xZvoM-250" value="" style="rounded=0;whiteSpace=wrap;html=1;fillColor=#e5dc7b;" vertex="1" parent="1">
          <mxGeometry x="510" y="410" width="10" height="20" as="geometry" />
        </mxCell>
        <mxCell id="YjWWDXaZrfKZDx-xZvoM-251" value="&lt;font style=&quot;font-size: 14px;&quot; color=&quot;#ababab&quot;&gt;DQ&lt;/font&gt;&lt;div style=&quot;font-size: 14px;&quot;&gt;&lt;font color=&quot;#ababab&quot;&gt;x8&lt;/font&gt;&lt;/div&gt;" style="rounded=0;whiteSpace=wrap;html=1;strokeColor=#454744;fillColor=#464646;" vertex="1" parent="1">
          <mxGeometry x="65" y="470" width="60" height="80" as="geometry" />
        </mxCell>
        <mxCell id="YjWWDXaZrfKZDx-xZvoM-252" value="&lt;font style=&quot;font-size: 14px;&quot; color=&quot;#ababab&quot;&gt;DQ&lt;/font&gt;&lt;div style=&quot;font-size: 14px;&quot;&gt;&lt;font color=&quot;#ababab&quot;&gt;x8&lt;/font&gt;&lt;/div&gt;" style="rounded=0;whiteSpace=wrap;html=1;strokeColor=#454744;fillColor=#464646;" vertex="1" parent="1">
          <mxGeometry x="145" y="470" width="60" height="80" as="geometry" />
        </mxCell>
        <mxCell id="YjWWDXaZrfKZDx-xZvoM-253" value="&lt;font style=&quot;font-size: 14px;&quot; color=&quot;#ababab&quot;&gt;DQ&lt;/font&gt;&lt;div style=&quot;font-size: 14px;&quot;&gt;&lt;font color=&quot;#ababab&quot;&gt;x8&lt;/font&gt;&lt;/div&gt;" style="rounded=0;whiteSpace=wrap;html=1;strokeColor=#454744;fillColor=#464646;" vertex="1" parent="1">
          <mxGeometry x="225" y="470" width="60" height="80" as="geometry" />
        </mxCell>
        <mxCell id="YjWWDXaZrfKZDx-xZvoM-254" value="&lt;font style=&quot;font-size: 14px;&quot; color=&quot;#ababab&quot;&gt;DQ&lt;/font&gt;&lt;div style=&quot;font-size: 14px;&quot;&gt;&lt;font color=&quot;#ababab&quot;&gt;x8&lt;/font&gt;&lt;/div&gt;" style="rounded=0;whiteSpace=wrap;html=1;strokeColor=#454744;fillColor=#464646;" vertex="1" parent="1">
          <mxGeometry x="305" y="470" width="60" height="80" as="geometry" />
        </mxCell>
        <mxCell id="YjWWDXaZrfKZDx-xZvoM-255" value="&lt;font style=&quot;font-size: 14px;&quot; color=&quot;#ababab&quot;&gt;ECC&lt;/font&gt;&lt;div style=&quot;font-size: 14px;&quot;&gt;&lt;font color=&quot;#ababab&quot;&gt;x8&lt;/font&gt;&lt;/div&gt;" style="rounded=0;whiteSpace=wrap;html=1;strokeColor=#454744;fillColor=#464646;" vertex="1" parent="1">
          <mxGeometry x="385" y="470" width="60" height="80" as="geometry" />
        </mxCell>
        <mxCell id="YjWWDXaZrfKZDx-xZvoM-257" value="&lt;font style=&quot;font-size: 14px;&quot; color=&quot;#ababab&quot;&gt;DQ&lt;/font&gt;&lt;div style=&quot;font-size: 14px;&quot;&gt;&lt;font color=&quot;#ababab&quot;&gt;x8&lt;/font&gt;&lt;/div&gt;" style="rounded=0;whiteSpace=wrap;html=1;strokeColor=#454744;fillColor=#464646;" vertex="1" parent="1">
          <mxGeometry x="685" y="470" width="60" height="80" as="geometry" />
        </mxCell>
        <mxCell id="YjWWDXaZrfKZDx-xZvoM-258" value="&lt;font style=&quot;font-size: 14px;&quot; color=&quot;#ababab&quot;&gt;DQ&lt;/font&gt;&lt;div style=&quot;font-size: 14px;&quot;&gt;&lt;font color=&quot;#ababab&quot;&gt;x8&lt;/font&gt;&lt;/div&gt;" style="rounded=0;whiteSpace=wrap;html=1;strokeColor=#454744;fillColor=#464646;" vertex="1" parent="1">
          <mxGeometry x="765" y="470" width="60" height="80" as="geometry" />
        </mxCell>
        <mxCell id="YjWWDXaZrfKZDx-xZvoM-259" value="&lt;font style=&quot;font-size: 14px;&quot; color=&quot;#ababab&quot;&gt;DQ&lt;/font&gt;&lt;div style=&quot;font-size: 14px;&quot;&gt;&lt;font color=&quot;#ababab&quot;&gt;x8&lt;/font&gt;&lt;/div&gt;" style="rounded=0;whiteSpace=wrap;html=1;strokeColor=#454744;fillColor=#464646;" vertex="1" parent="1">
          <mxGeometry x="845" y="470" width="60" height="80" as="geometry" />
        </mxCell>
        <mxCell id="YjWWDXaZrfKZDx-xZvoM-260" value="&lt;font style=&quot;font-size: 14px;&quot; color=&quot;#ababab&quot;&gt;DQ&lt;/font&gt;&lt;div style=&quot;font-size: 14px;&quot;&gt;&lt;font color=&quot;#ababab&quot;&gt;x8&lt;/font&gt;&lt;/div&gt;" style="rounded=0;whiteSpace=wrap;html=1;strokeColor=#454744;fillColor=#464646;" vertex="1" parent="1">
          <mxGeometry x="925" y="470" width="60" height="80" as="geometry" />
        </mxCell>
        <mxCell id="YjWWDXaZrfKZDx-xZvoM-263" value="&lt;font style=&quot;font-size: 14px;&quot; color=&quot;#ababab&quot;&gt;&lt;b&gt;SPD&lt;/b&gt;&lt;/font&gt;" style="rounded=0;whiteSpace=wrap;html=1;strokeColor=#454744;fillColor=#464646;direction=south;" vertex="1" parent="1">
          <mxGeometry x="495" y="520" width="50" height="40" as="geometry" />
        </mxCell>
        <mxCell id="YjWWDXaZrfKZDx-xZvoM-276" value="" style="rounded=0;whiteSpace=wrap;html=1;fillColor=#2e7956;" vertex="1" parent="1">
          <mxGeometry x="20" y="686" width="990" height="180" as="geometry" />
        </mxCell>
        <mxCell id="YjWWDXaZrfKZDx-xZvoM-277" value="" style="rounded=0;whiteSpace=wrap;html=1;fillColor=#e5dc7b;" vertex="1" parent="1">
          <mxGeometry x="50" y="846" width="10" height="20" as="geometry" />
        </mxCell>
        <mxCell id="YjWWDXaZrfKZDx-xZvoM-278" value="" style="rounded=0;whiteSpace=wrap;html=1;fillColor=#e5dc7b;" vertex="1" parent="1">
          <mxGeometry x="60" y="846" width="10" height="20" as="geometry" />
        </mxCell>
        <mxCell id="YjWWDXaZrfKZDx-xZvoM-279" value="" style="rounded=0;whiteSpace=wrap;html=1;fillColor=#e5dc7b;" vertex="1" parent="1">
          <mxGeometry x="70" y="846" width="10" height="20" as="geometry" />
        </mxCell>
        <mxCell id="YjWWDXaZrfKZDx-xZvoM-280" value="" style="rounded=0;whiteSpace=wrap;html=1;fillColor=#e5dc7b;" vertex="1" parent="1">
          <mxGeometry x="80" y="846" width="10" height="20" as="geometry" />
        </mxCell>
        <mxCell id="YjWWDXaZrfKZDx-xZvoM-281" value="" style="rounded=0;whiteSpace=wrap;html=1;fillColor=#e5dc7b;" vertex="1" parent="1">
          <mxGeometry x="90" y="846" width="10" height="20" as="geometry" />
        </mxCell>
        <mxCell id="YjWWDXaZrfKZDx-xZvoM-282" value="" style="rounded=0;whiteSpace=wrap;html=1;fillColor=#e5dc7b;" vertex="1" parent="1">
          <mxGeometry x="100" y="846" width="10" height="20" as="geometry" />
        </mxCell>
        <mxCell id="YjWWDXaZrfKZDx-xZvoM-283" value="" style="rounded=0;whiteSpace=wrap;html=1;fillColor=#e5dc7b;" vertex="1" parent="1">
          <mxGeometry x="110" y="846" width="10" height="20" as="geometry" />
        </mxCell>
        <mxCell id="YjWWDXaZrfKZDx-xZvoM-284" value="" style="rounded=0;whiteSpace=wrap;html=1;fillColor=#e5dc7b;" vertex="1" parent="1">
          <mxGeometry x="120" y="846" width="10" height="20" as="geometry" />
        </mxCell>
        <mxCell id="YjWWDXaZrfKZDx-xZvoM-285" value="" style="rounded=0;whiteSpace=wrap;html=1;fillColor=#e5dc7b;" vertex="1" parent="1">
          <mxGeometry x="130" y="846" width="10" height="20" as="geometry" />
        </mxCell>
        <mxCell id="YjWWDXaZrfKZDx-xZvoM-286" value="" style="rounded=0;whiteSpace=wrap;html=1;fillColor=#e5dc7b;" vertex="1" parent="1">
          <mxGeometry x="140" y="846" width="10" height="20" as="geometry" />
        </mxCell>
        <mxCell id="YjWWDXaZrfKZDx-xZvoM-287" value="" style="rounded=0;whiteSpace=wrap;html=1;fillColor=#e5dc7b;" vertex="1" parent="1">
          <mxGeometry x="150" y="846" width="10" height="20" as="geometry" />
        </mxCell>
        <mxCell id="YjWWDXaZrfKZDx-xZvoM-288" value="" style="rounded=0;whiteSpace=wrap;html=1;fillColor=#e5dc7b;" vertex="1" parent="1">
          <mxGeometry x="160" y="846" width="10" height="20" as="geometry" />
        </mxCell>
        <mxCell id="YjWWDXaZrfKZDx-xZvoM-289" value="" style="rounded=0;whiteSpace=wrap;html=1;fillColor=#e5dc7b;" vertex="1" parent="1">
          <mxGeometry x="170" y="846" width="10" height="20" as="geometry" />
        </mxCell>
        <mxCell id="YjWWDXaZrfKZDx-xZvoM-290" value="" style="rounded=0;whiteSpace=wrap;html=1;fillColor=#e5dc7b;" vertex="1" parent="1">
          <mxGeometry x="180" y="846" width="10" height="20" as="geometry" />
        </mxCell>
        <mxCell id="YjWWDXaZrfKZDx-xZvoM-291" value="" style="rounded=0;whiteSpace=wrap;html=1;fillColor=#e5dc7b;" vertex="1" parent="1">
          <mxGeometry x="190" y="846" width="10" height="20" as="geometry" />
        </mxCell>
        <mxCell id="YjWWDXaZrfKZDx-xZvoM-292" value="" style="rounded=0;whiteSpace=wrap;html=1;fillColor=#e5dc7b;" vertex="1" parent="1">
          <mxGeometry x="200" y="846" width="10" height="20" as="geometry" />
        </mxCell>
        <mxCell id="YjWWDXaZrfKZDx-xZvoM-293" value="" style="rounded=0;whiteSpace=wrap;html=1;fillColor=#e5dc7b;" vertex="1" parent="1">
          <mxGeometry x="210" y="846" width="10" height="20" as="geometry" />
        </mxCell>
        <mxCell id="YjWWDXaZrfKZDx-xZvoM-294" value="" style="rounded=0;whiteSpace=wrap;html=1;fillColor=#e5dc7b;" vertex="1" parent="1">
          <mxGeometry x="220" y="846" width="10" height="20" as="geometry" />
        </mxCell>
        <mxCell id="YjWWDXaZrfKZDx-xZvoM-295" value="" style="rounded=0;whiteSpace=wrap;html=1;fillColor=#e5dc7b;" vertex="1" parent="1">
          <mxGeometry x="230" y="846" width="10" height="20" as="geometry" />
        </mxCell>
        <mxCell id="YjWWDXaZrfKZDx-xZvoM-296" value="" style="rounded=0;whiteSpace=wrap;html=1;fillColor=#e5dc7b;" vertex="1" parent="1">
          <mxGeometry x="240" y="846" width="10" height="20" as="geometry" />
        </mxCell>
        <mxCell id="YjWWDXaZrfKZDx-xZvoM-297" value="" style="rounded=0;whiteSpace=wrap;html=1;fillColor=#e5dc7b;" vertex="1" parent="1">
          <mxGeometry x="250" y="846" width="10" height="20" as="geometry" />
        </mxCell>
        <mxCell id="YjWWDXaZrfKZDx-xZvoM-298" value="" style="rounded=0;whiteSpace=wrap;html=1;fillColor=#e5dc7b;" vertex="1" parent="1">
          <mxGeometry x="260" y="846" width="10" height="20" as="geometry" />
        </mxCell>
        <mxCell id="YjWWDXaZrfKZDx-xZvoM-299" value="" style="rounded=0;whiteSpace=wrap;html=1;fillColor=#e5dc7b;" vertex="1" parent="1">
          <mxGeometry x="270" y="846" width="10" height="20" as="geometry" />
        </mxCell>
        <mxCell id="YjWWDXaZrfKZDx-xZvoM-300" value="" style="rounded=0;whiteSpace=wrap;html=1;fillColor=#e5dc7b;" vertex="1" parent="1">
          <mxGeometry x="280" y="846" width="10" height="20" as="geometry" />
        </mxCell>
        <mxCell id="YjWWDXaZrfKZDx-xZvoM-301" value="" style="rounded=0;whiteSpace=wrap;html=1;fillColor=#e5dc7b;" vertex="1" parent="1">
          <mxGeometry x="290" y="846" width="10" height="20" as="geometry" />
        </mxCell>
        <mxCell id="YjWWDXaZrfKZDx-xZvoM-302" value="" style="rounded=0;whiteSpace=wrap;html=1;fillColor=#e5dc7b;" vertex="1" parent="1">
          <mxGeometry x="300" y="846" width="10" height="20" as="geometry" />
        </mxCell>
        <mxCell id="YjWWDXaZrfKZDx-xZvoM-303" value="" style="rounded=0;whiteSpace=wrap;html=1;fillColor=#e5dc7b;" vertex="1" parent="1">
          <mxGeometry x="310" y="846" width="10" height="20" as="geometry" />
        </mxCell>
        <mxCell id="YjWWDXaZrfKZDx-xZvoM-304" value="" style="rounded=0;whiteSpace=wrap;html=1;fillColor=#e5dc7b;" vertex="1" parent="1">
          <mxGeometry x="320" y="846" width="10" height="20" as="geometry" />
        </mxCell>
        <mxCell id="YjWWDXaZrfKZDx-xZvoM-305" value="" style="rounded=0;whiteSpace=wrap;html=1;fillColor=#e5dc7b;" vertex="1" parent="1">
          <mxGeometry x="330" y="846" width="10" height="20" as="geometry" />
        </mxCell>
        <mxCell id="YjWWDXaZrfKZDx-xZvoM-306" value="" style="rounded=0;whiteSpace=wrap;html=1;fillColor=#e5dc7b;" vertex="1" parent="1">
          <mxGeometry x="340" y="846" width="10" height="20" as="geometry" />
        </mxCell>
        <mxCell id="YjWWDXaZrfKZDx-xZvoM-307" value="" style="rounded=0;whiteSpace=wrap;html=1;fillColor=#e5dc7b;" vertex="1" parent="1">
          <mxGeometry x="350" y="846" width="10" height="20" as="geometry" />
        </mxCell>
        <mxCell id="YjWWDXaZrfKZDx-xZvoM-308" value="" style="rounded=0;whiteSpace=wrap;html=1;fillColor=#e5dc7b;" vertex="1" parent="1">
          <mxGeometry x="360" y="846" width="10" height="20" as="geometry" />
        </mxCell>
        <mxCell id="YjWWDXaZrfKZDx-xZvoM-309" value="" style="rounded=0;whiteSpace=wrap;html=1;fillColor=#e5dc7b;" vertex="1" parent="1">
          <mxGeometry x="370" y="846" width="10" height="20" as="geometry" />
        </mxCell>
        <mxCell id="YjWWDXaZrfKZDx-xZvoM-310" value="" style="rounded=0;whiteSpace=wrap;html=1;fillColor=#e5dc7b;" vertex="1" parent="1">
          <mxGeometry x="380" y="846" width="10" height="20" as="geometry" />
        </mxCell>
        <mxCell id="YjWWDXaZrfKZDx-xZvoM-311" value="" style="rounded=0;whiteSpace=wrap;html=1;fillColor=#e5dc7b;" vertex="1" parent="1">
          <mxGeometry x="390" y="846" width="10" height="20" as="geometry" />
        </mxCell>
        <mxCell id="YjWWDXaZrfKZDx-xZvoM-312" value="" style="rounded=0;whiteSpace=wrap;html=1;fillColor=#e5dc7b;" vertex="1" parent="1">
          <mxGeometry x="400" y="846" width="10" height="20" as="geometry" />
        </mxCell>
        <mxCell id="YjWWDXaZrfKZDx-xZvoM-313" value="" style="rounded=0;whiteSpace=wrap;html=1;fillColor=#e5dc7b;" vertex="1" parent="1">
          <mxGeometry x="410" y="846" width="10" height="20" as="geometry" />
        </mxCell>
        <mxCell id="YjWWDXaZrfKZDx-xZvoM-314" value="" style="rounded=0;whiteSpace=wrap;html=1;fillColor=#e5dc7b;" vertex="1" parent="1">
          <mxGeometry x="420" y="846" width="10" height="20" as="geometry" />
        </mxCell>
        <mxCell id="YjWWDXaZrfKZDx-xZvoM-315" value="" style="rounded=0;whiteSpace=wrap;html=1;fillColor=#e5dc7b;" vertex="1" parent="1">
          <mxGeometry x="600" y="846" width="10" height="20" as="geometry" />
        </mxCell>
        <mxCell id="YjWWDXaZrfKZDx-xZvoM-316" value="" style="rounded=0;whiteSpace=wrap;html=1;fillColor=#e5dc7b;" vertex="1" parent="1">
          <mxGeometry x="610" y="846" width="10" height="20" as="geometry" />
        </mxCell>
        <mxCell id="YjWWDXaZrfKZDx-xZvoM-317" value="" style="rounded=0;whiteSpace=wrap;html=1;fillColor=#e5dc7b;" vertex="1" parent="1">
          <mxGeometry x="620" y="846" width="10" height="20" as="geometry" />
        </mxCell>
        <mxCell id="YjWWDXaZrfKZDx-xZvoM-318" value="" style="rounded=0;whiteSpace=wrap;html=1;fillColor=#e5dc7b;" vertex="1" parent="1">
          <mxGeometry x="630" y="846" width="10" height="20" as="geometry" />
        </mxCell>
        <mxCell id="YjWWDXaZrfKZDx-xZvoM-319" value="" style="rounded=0;whiteSpace=wrap;html=1;fillColor=#e5dc7b;" vertex="1" parent="1">
          <mxGeometry x="640" y="846" width="10" height="20" as="geometry" />
        </mxCell>
        <mxCell id="YjWWDXaZrfKZDx-xZvoM-320" value="" style="rounded=0;whiteSpace=wrap;html=1;fillColor=#e5dc7b;" vertex="1" parent="1">
          <mxGeometry x="650" y="846" width="10" height="20" as="geometry" />
        </mxCell>
        <mxCell id="YjWWDXaZrfKZDx-xZvoM-321" value="" style="rounded=0;whiteSpace=wrap;html=1;fillColor=#e5dc7b;" vertex="1" parent="1">
          <mxGeometry x="660" y="846" width="10" height="20" as="geometry" />
        </mxCell>
        <mxCell id="YjWWDXaZrfKZDx-xZvoM-322" value="" style="rounded=0;whiteSpace=wrap;html=1;fillColor=#e5dc7b;" vertex="1" parent="1">
          <mxGeometry x="670" y="846" width="10" height="20" as="geometry" />
        </mxCell>
        <mxCell id="YjWWDXaZrfKZDx-xZvoM-323" value="" style="rounded=0;whiteSpace=wrap;html=1;fillColor=#e5dc7b;" vertex="1" parent="1">
          <mxGeometry x="680" y="846" width="10" height="20" as="geometry" />
        </mxCell>
        <mxCell id="YjWWDXaZrfKZDx-xZvoM-324" value="" style="rounded=0;whiteSpace=wrap;html=1;fillColor=#e5dc7b;" vertex="1" parent="1">
          <mxGeometry x="690" y="846" width="10" height="20" as="geometry" />
        </mxCell>
        <mxCell id="YjWWDXaZrfKZDx-xZvoM-325" value="" style="rounded=0;whiteSpace=wrap;html=1;fillColor=#e5dc7b;" vertex="1" parent="1">
          <mxGeometry x="700" y="846" width="10" height="20" as="geometry" />
        </mxCell>
        <mxCell id="YjWWDXaZrfKZDx-xZvoM-326" value="" style="rounded=0;whiteSpace=wrap;html=1;fillColor=#e5dc7b;" vertex="1" parent="1">
          <mxGeometry x="710" y="846" width="10" height="20" as="geometry" />
        </mxCell>
        <mxCell id="YjWWDXaZrfKZDx-xZvoM-327" value="" style="rounded=0;whiteSpace=wrap;html=1;fillColor=#e5dc7b;" vertex="1" parent="1">
          <mxGeometry x="720" y="846" width="10" height="20" as="geometry" />
        </mxCell>
        <mxCell id="YjWWDXaZrfKZDx-xZvoM-328" value="" style="rounded=0;whiteSpace=wrap;html=1;fillColor=#e5dc7b;" vertex="1" parent="1">
          <mxGeometry x="730" y="846" width="10" height="20" as="geometry" />
        </mxCell>
        <mxCell id="YjWWDXaZrfKZDx-xZvoM-329" value="" style="rounded=0;whiteSpace=wrap;html=1;fillColor=#e5dc7b;" vertex="1" parent="1">
          <mxGeometry x="740" y="846" width="10" height="20" as="geometry" />
        </mxCell>
        <mxCell id="YjWWDXaZrfKZDx-xZvoM-330" value="" style="rounded=0;whiteSpace=wrap;html=1;fillColor=#e5dc7b;" vertex="1" parent="1">
          <mxGeometry x="750" y="846" width="10" height="20" as="geometry" />
        </mxCell>
        <mxCell id="YjWWDXaZrfKZDx-xZvoM-331" value="" style="rounded=0;whiteSpace=wrap;html=1;fillColor=#e5dc7b;" vertex="1" parent="1">
          <mxGeometry x="760" y="846" width="10" height="20" as="geometry" />
        </mxCell>
        <mxCell id="YjWWDXaZrfKZDx-xZvoM-332" value="" style="rounded=0;whiteSpace=wrap;html=1;fillColor=#e5dc7b;" vertex="1" parent="1">
          <mxGeometry x="770" y="846" width="10" height="20" as="geometry" />
        </mxCell>
        <mxCell id="YjWWDXaZrfKZDx-xZvoM-333" value="" style="rounded=0;whiteSpace=wrap;html=1;fillColor=#e5dc7b;" vertex="1" parent="1">
          <mxGeometry x="780" y="846" width="10" height="20" as="geometry" />
        </mxCell>
        <mxCell id="YjWWDXaZrfKZDx-xZvoM-334" value="" style="rounded=0;whiteSpace=wrap;html=1;fillColor=#e5dc7b;" vertex="1" parent="1">
          <mxGeometry x="790" y="846" width="10" height="20" as="geometry" />
        </mxCell>
        <mxCell id="YjWWDXaZrfKZDx-xZvoM-335" value="" style="rounded=0;whiteSpace=wrap;html=1;fillColor=#e5dc7b;" vertex="1" parent="1">
          <mxGeometry x="800" y="846" width="10" height="20" as="geometry" />
        </mxCell>
        <mxCell id="YjWWDXaZrfKZDx-xZvoM-336" value="" style="rounded=0;whiteSpace=wrap;html=1;fillColor=#e5dc7b;" vertex="1" parent="1">
          <mxGeometry x="810" y="846" width="10" height="20" as="geometry" />
        </mxCell>
        <mxCell id="YjWWDXaZrfKZDx-xZvoM-337" value="" style="rounded=0;whiteSpace=wrap;html=1;fillColor=#e5dc7b;" vertex="1" parent="1">
          <mxGeometry x="820" y="846" width="10" height="20" as="geometry" />
        </mxCell>
        <mxCell id="YjWWDXaZrfKZDx-xZvoM-338" value="" style="rounded=0;whiteSpace=wrap;html=1;fillColor=#e5dc7b;" vertex="1" parent="1">
          <mxGeometry x="830" y="846" width="10" height="20" as="geometry" />
        </mxCell>
        <mxCell id="YjWWDXaZrfKZDx-xZvoM-339" value="" style="rounded=0;whiteSpace=wrap;html=1;fillColor=#e5dc7b;" vertex="1" parent="1">
          <mxGeometry x="840" y="846" width="10" height="20" as="geometry" />
        </mxCell>
        <mxCell id="YjWWDXaZrfKZDx-xZvoM-340" value="" style="rounded=0;whiteSpace=wrap;html=1;fillColor=#e5dc7b;" vertex="1" parent="1">
          <mxGeometry x="850" y="846" width="10" height="20" as="geometry" />
        </mxCell>
        <mxCell id="YjWWDXaZrfKZDx-xZvoM-341" value="" style="rounded=0;whiteSpace=wrap;html=1;fillColor=#e5dc7b;" vertex="1" parent="1">
          <mxGeometry x="860" y="846" width="10" height="20" as="geometry" />
        </mxCell>
        <mxCell id="YjWWDXaZrfKZDx-xZvoM-342" value="" style="rounded=0;whiteSpace=wrap;html=1;fillColor=#e5dc7b;" vertex="1" parent="1">
          <mxGeometry x="870" y="846" width="10" height="20" as="geometry" />
        </mxCell>
        <mxCell id="YjWWDXaZrfKZDx-xZvoM-343" value="" style="rounded=0;whiteSpace=wrap;html=1;fillColor=#e5dc7b;" vertex="1" parent="1">
          <mxGeometry x="880" y="846" width="10" height="20" as="geometry" />
        </mxCell>
        <mxCell id="YjWWDXaZrfKZDx-xZvoM-344" value="" style="rounded=0;whiteSpace=wrap;html=1;fillColor=#e5dc7b;" vertex="1" parent="1">
          <mxGeometry x="890" y="846" width="10" height="20" as="geometry" />
        </mxCell>
        <mxCell id="YjWWDXaZrfKZDx-xZvoM-345" value="" style="rounded=0;whiteSpace=wrap;html=1;fillColor=#e5dc7b;" vertex="1" parent="1">
          <mxGeometry x="900" y="846" width="10" height="20" as="geometry" />
        </mxCell>
        <mxCell id="YjWWDXaZrfKZDx-xZvoM-346" value="" style="rounded=0;whiteSpace=wrap;html=1;fillColor=#e5dc7b;" vertex="1" parent="1">
          <mxGeometry x="910" y="846" width="10" height="20" as="geometry" />
        </mxCell>
        <mxCell id="YjWWDXaZrfKZDx-xZvoM-347" value="" style="rounded=0;whiteSpace=wrap;html=1;fillColor=#e5dc7b;" vertex="1" parent="1">
          <mxGeometry x="920" y="846" width="10" height="20" as="geometry" />
        </mxCell>
        <mxCell id="YjWWDXaZrfKZDx-xZvoM-348" value="" style="rounded=0;whiteSpace=wrap;html=1;fillColor=#e5dc7b;" vertex="1" parent="1">
          <mxGeometry x="930" y="846" width="10" height="20" as="geometry" />
        </mxCell>
        <mxCell id="YjWWDXaZrfKZDx-xZvoM-349" value="" style="rounded=0;whiteSpace=wrap;html=1;fillColor=#e5dc7b;" vertex="1" parent="1">
          <mxGeometry x="940" y="846" width="10" height="20" as="geometry" />
        </mxCell>
        <mxCell id="YjWWDXaZrfKZDx-xZvoM-350" value="" style="rounded=0;whiteSpace=wrap;html=1;fillColor=#e5dc7b;" vertex="1" parent="1">
          <mxGeometry x="950" y="846" width="10" height="20" as="geometry" />
        </mxCell>
        <mxCell id="YjWWDXaZrfKZDx-xZvoM-351" value="" style="rounded=0;whiteSpace=wrap;html=1;fillColor=#e5dc7b;" vertex="1" parent="1">
          <mxGeometry x="960" y="846" width="10" height="20" as="geometry" />
        </mxCell>
        <mxCell id="YjWWDXaZrfKZDx-xZvoM-352" value="" style="rounded=0;whiteSpace=wrap;html=1;fillColor=#e5dc7b;" vertex="1" parent="1">
          <mxGeometry x="970" y="846" width="10" height="20" as="geometry" />
        </mxCell>
        <mxCell id="YjWWDXaZrfKZDx-xZvoM-353" value="" style="rounded=0;whiteSpace=wrap;html=1;fillColor=#e5dc7b;" vertex="1" parent="1">
          <mxGeometry x="980" y="846" width="10" height="20" as="geometry" />
        </mxCell>
        <mxCell id="YjWWDXaZrfKZDx-xZvoM-354" value="" style="shape=or;whiteSpace=wrap;html=1;direction=north;" vertex="1" parent="1">
          <mxGeometry x="530" y="836" width="20" height="30" as="geometry" />
        </mxCell>
        <mxCell id="YjWWDXaZrfKZDx-xZvoM-355" value="" style="rounded=0;whiteSpace=wrap;html=1;fillColor=#e5dc7b;" vertex="1" parent="1">
          <mxGeometry x="570" y="846" width="10" height="20" as="geometry" />
        </mxCell>
        <mxCell id="YjWWDXaZrfKZDx-xZvoM-356" value="" style="rounded=0;whiteSpace=wrap;html=1;fillColor=#e5dc7b;" vertex="1" parent="1">
          <mxGeometry x="580" y="846" width="10" height="20" as="geometry" />
        </mxCell>
        <mxCell id="YjWWDXaZrfKZDx-xZvoM-357" value="" style="rounded=0;whiteSpace=wrap;html=1;fillColor=#e5dc7b;" vertex="1" parent="1">
          <mxGeometry x="590" y="846" width="10" height="20" as="geometry" />
        </mxCell>
        <mxCell id="YjWWDXaZrfKZDx-xZvoM-358" value="" style="rounded=0;whiteSpace=wrap;html=1;fillColor=#e5dc7b;" vertex="1" parent="1">
          <mxGeometry x="430" y="846" width="10" height="20" as="geometry" />
        </mxCell>
        <mxCell id="YjWWDXaZrfKZDx-xZvoM-359" value="" style="rounded=0;whiteSpace=wrap;html=1;fillColor=#e5dc7b;" vertex="1" parent="1">
          <mxGeometry x="440" y="846" width="10" height="20" as="geometry" />
        </mxCell>
        <mxCell id="YjWWDXaZrfKZDx-xZvoM-360" value="&lt;font style=&quot;font-size: 14px;&quot; color=&quot;#ababab&quot;&gt;&lt;b&gt;RCD&lt;/b&gt;&lt;/font&gt;" style="rounded=0;whiteSpace=wrap;html=1;strokeColor=#454744;fillColor=#464646;direction=south;" vertex="1" parent="1">
          <mxGeometry x="480" y="730" width="80" height="70" as="geometry" />
        </mxCell>
        <mxCell id="YjWWDXaZrfKZDx-xZvoM-361" value="" style="rounded=0;whiteSpace=wrap;html=1;fillColor=#e5dc7b;" vertex="1" parent="1">
          <mxGeometry x="450" y="846" width="10" height="20" as="geometry" />
        </mxCell>
        <mxCell id="YjWWDXaZrfKZDx-xZvoM-362" value="" style="rounded=0;whiteSpace=wrap;html=1;fillColor=#e5dc7b;" vertex="1" parent="1">
          <mxGeometry x="460" y="846" width="10" height="20" as="geometry" />
        </mxCell>
        <mxCell id="YjWWDXaZrfKZDx-xZvoM-363" value="" style="rounded=0;whiteSpace=wrap;html=1;fillColor=#e5dc7b;" vertex="1" parent="1">
          <mxGeometry x="470" y="846" width="10" height="20" as="geometry" />
        </mxCell>
        <mxCell id="YjWWDXaZrfKZDx-xZvoM-364" value="" style="rounded=0;whiteSpace=wrap;html=1;fillColor=#e5dc7b;" vertex="1" parent="1">
          <mxGeometry x="480" y="846" width="10" height="20" as="geometry" />
        </mxCell>
        <mxCell id="YjWWDXaZrfKZDx-xZvoM-365" value="" style="rounded=0;whiteSpace=wrap;html=1;fillColor=#e5dc7b;" vertex="1" parent="1">
          <mxGeometry x="490" y="846" width="10" height="20" as="geometry" />
        </mxCell>
        <mxCell id="YjWWDXaZrfKZDx-xZvoM-366" value="" style="rounded=0;whiteSpace=wrap;html=1;fillColor=#e5dc7b;" vertex="1" parent="1">
          <mxGeometry x="500" y="846" width="10" height="20" as="geometry" />
        </mxCell>
        <mxCell id="YjWWDXaZrfKZDx-xZvoM-367" value="" style="rounded=0;whiteSpace=wrap;html=1;fillColor=#e5dc7b;" vertex="1" parent="1">
          <mxGeometry x="510" y="846" width="10" height="20" as="geometry" />
        </mxCell>
        <mxCell id="YjWWDXaZrfKZDx-xZvoM-368" value="&lt;font style=&quot;font-size: 14px;&quot; color=&quot;#ababab&quot;&gt;DQ&lt;/font&gt;&lt;div style=&quot;font-size: 14px;&quot;&gt;&lt;font color=&quot;#ababab&quot;&gt;x8&lt;/font&gt;&lt;/div&gt;" style="rounded=0;whiteSpace=wrap;html=1;strokeColor=#454744;fillColor=#464646;" vertex="1" parent="1">
          <mxGeometry x="60" y="730" width="60" height="80" as="geometry" />
        </mxCell>
        <mxCell id="YjWWDXaZrfKZDx-xZvoM-369" value="&lt;font style=&quot;font-size: 14px;&quot; color=&quot;#ababab&quot;&gt;DQ&lt;/font&gt;&lt;div style=&quot;font-size: 14px;&quot;&gt;&lt;font color=&quot;#ababab&quot;&gt;x8&lt;/font&gt;&lt;/div&gt;" style="rounded=0;whiteSpace=wrap;html=1;strokeColor=#454744;fillColor=#464646;" vertex="1" parent="1">
          <mxGeometry x="140" y="730" width="60" height="80" as="geometry" />
        </mxCell>
        <mxCell id="YjWWDXaZrfKZDx-xZvoM-370" value="&lt;font style=&quot;font-size: 14px;&quot; color=&quot;#ababab&quot;&gt;DQ&lt;/font&gt;&lt;div style=&quot;font-size: 14px;&quot;&gt;&lt;font color=&quot;#ababab&quot;&gt;x8&lt;/font&gt;&lt;/div&gt;" style="rounded=0;whiteSpace=wrap;html=1;strokeColor=#454744;fillColor=#464646;" vertex="1" parent="1">
          <mxGeometry x="220" y="730" width="60" height="80" as="geometry" />
        </mxCell>
        <mxCell id="YjWWDXaZrfKZDx-xZvoM-371" value="&lt;font style=&quot;font-size: 14px;&quot; color=&quot;#ababab&quot;&gt;DQ&lt;/font&gt;&lt;div style=&quot;font-size: 14px;&quot;&gt;&lt;font color=&quot;#ababab&quot;&gt;x8&lt;/font&gt;&lt;/div&gt;" style="rounded=0;whiteSpace=wrap;html=1;strokeColor=#454744;fillColor=#464646;" vertex="1" parent="1">
          <mxGeometry x="300" y="730" width="60" height="80" as="geometry" />
        </mxCell>
        <mxCell id="YjWWDXaZrfKZDx-xZvoM-372" value="&lt;font style=&quot;font-size: 14px;&quot; color=&quot;#ababab&quot;&gt;ECC&lt;/font&gt;&lt;div style=&quot;font-size: 14px;&quot;&gt;&lt;font color=&quot;#ababab&quot;&gt;x8&lt;/font&gt;&lt;/div&gt;" style="rounded=0;whiteSpace=wrap;html=1;strokeColor=#454744;fillColor=#464646;" vertex="1" parent="1">
          <mxGeometry x="380" y="730" width="60" height="80" as="geometry" />
        </mxCell>
        <mxCell id="YjWWDXaZrfKZDx-xZvoM-373" value="&lt;font style=&quot;font-size: 14px;&quot; color=&quot;#ababab&quot;&gt;ECC&lt;/font&gt;&lt;div style=&quot;font-size: 14px;&quot;&gt;&lt;font color=&quot;#ababab&quot;&gt;x8&lt;/font&gt;&lt;/div&gt;" style="rounded=0;whiteSpace=wrap;html=1;strokeColor=#454744;fillColor=#464646;" vertex="1" parent="1">
          <mxGeometry x="600" y="730" width="60" height="80" as="geometry" />
        </mxCell>
        <mxCell id="YjWWDXaZrfKZDx-xZvoM-374" value="&lt;font style=&quot;font-size: 14px;&quot; color=&quot;#ababab&quot;&gt;DQ&lt;/font&gt;&lt;div style=&quot;font-size: 14px;&quot;&gt;&lt;font color=&quot;#ababab&quot;&gt;x8&lt;/font&gt;&lt;/div&gt;" style="rounded=0;whiteSpace=wrap;html=1;strokeColor=#454744;fillColor=#464646;" vertex="1" parent="1">
          <mxGeometry x="680" y="730" width="60" height="80" as="geometry" />
        </mxCell>
        <mxCell id="YjWWDXaZrfKZDx-xZvoM-375" value="&lt;font style=&quot;font-size: 14px;&quot; color=&quot;#ababab&quot;&gt;DQ&lt;/font&gt;&lt;div style=&quot;font-size: 14px;&quot;&gt;&lt;font color=&quot;#ababab&quot;&gt;x8&lt;/font&gt;&lt;/div&gt;" style="rounded=0;whiteSpace=wrap;html=1;strokeColor=#454744;fillColor=#464646;" vertex="1" parent="1">
          <mxGeometry x="760" y="730" width="60" height="80" as="geometry" />
        </mxCell>
        <mxCell id="YjWWDXaZrfKZDx-xZvoM-376" value="&lt;font style=&quot;font-size: 14px;&quot; color=&quot;#ababab&quot;&gt;DQ&lt;/font&gt;&lt;div style=&quot;font-size: 14px;&quot;&gt;&lt;font color=&quot;#ababab&quot;&gt;x8&lt;/font&gt;&lt;/div&gt;" style="rounded=0;whiteSpace=wrap;html=1;strokeColor=#454744;fillColor=#464646;" vertex="1" parent="1">
          <mxGeometry x="840" y="730" width="60" height="80" as="geometry" />
        </mxCell>
        <mxCell id="YjWWDXaZrfKZDx-xZvoM-377" value="&lt;font style=&quot;font-size: 14px;&quot; color=&quot;#ababab&quot;&gt;DQ&lt;/font&gt;&lt;div style=&quot;font-size: 14px;&quot;&gt;&lt;font color=&quot;#ababab&quot;&gt;x8&lt;/font&gt;&lt;/div&gt;" style="rounded=0;whiteSpace=wrap;html=1;strokeColor=#454744;fillColor=#464646;" vertex="1" parent="1">
          <mxGeometry x="920" y="730" width="60" height="80" as="geometry" />
        </mxCell>
        <mxCell id="YjWWDXaZrfKZDx-xZvoM-378" value="&lt;font color=&quot;#ababab&quot;&gt;&lt;span style=&quot;font-size: 14px;&quot;&gt;TS0&lt;/span&gt;&lt;/font&gt;" style="rounded=0;whiteSpace=wrap;html=1;strokeColor=#454744;fillColor=#464646;" vertex="1" parent="1">
          <mxGeometry x="111" y="706" width="35" height="20" as="geometry" />
        </mxCell>
        <mxCell id="YjWWDXaZrfKZDx-xZvoM-379" value="&lt;font color=&quot;#ababab&quot;&gt;&lt;span style=&quot;font-size: 14px;&quot;&gt;TS1&lt;/span&gt;&lt;/font&gt;" style="rounded=0;whiteSpace=wrap;html=1;strokeColor=#454744;fillColor=#464646;" vertex="1" parent="1">
          <mxGeometry x="892" y="706" width="35" height="20" as="geometry" />
        </mxCell>
        <mxCell id="YjWWDXaZrfKZDx-xZvoM-380" value="" style="rounded=0;whiteSpace=wrap;html=1;fillColor=#2e7956;" vertex="1" parent="1">
          <mxGeometry x="20" y="890" width="990" height="180" as="geometry" />
        </mxCell>
        <mxCell id="YjWWDXaZrfKZDx-xZvoM-381" value="" style="rounded=0;whiteSpace=wrap;html=1;fillColor=#e5dc7b;" vertex="1" parent="1">
          <mxGeometry x="50" y="890" width="10" height="20" as="geometry" />
        </mxCell>
        <mxCell id="YjWWDXaZrfKZDx-xZvoM-382" value="" style="rounded=0;whiteSpace=wrap;html=1;fillColor=#e5dc7b;" vertex="1" parent="1">
          <mxGeometry x="60" y="890" width="10" height="20" as="geometry" />
        </mxCell>
        <mxCell id="YjWWDXaZrfKZDx-xZvoM-383" value="" style="rounded=0;whiteSpace=wrap;html=1;fillColor=#e5dc7b;" vertex="1" parent="1">
          <mxGeometry x="70" y="890" width="10" height="20" as="geometry" />
        </mxCell>
        <mxCell id="YjWWDXaZrfKZDx-xZvoM-384" value="" style="rounded=0;whiteSpace=wrap;html=1;fillColor=#e5dc7b;" vertex="1" parent="1">
          <mxGeometry x="80" y="890" width="10" height="20" as="geometry" />
        </mxCell>
        <mxCell id="YjWWDXaZrfKZDx-xZvoM-385" value="" style="rounded=0;whiteSpace=wrap;html=1;fillColor=#e5dc7b;" vertex="1" parent="1">
          <mxGeometry x="90" y="890" width="10" height="20" as="geometry" />
        </mxCell>
        <mxCell id="YjWWDXaZrfKZDx-xZvoM-386" value="" style="rounded=0;whiteSpace=wrap;html=1;fillColor=#e5dc7b;" vertex="1" parent="1">
          <mxGeometry x="100" y="890" width="10" height="20" as="geometry" />
        </mxCell>
        <mxCell id="YjWWDXaZrfKZDx-xZvoM-387" value="" style="rounded=0;whiteSpace=wrap;html=1;fillColor=#e5dc7b;" vertex="1" parent="1">
          <mxGeometry x="110" y="890" width="10" height="20" as="geometry" />
        </mxCell>
        <mxCell id="YjWWDXaZrfKZDx-xZvoM-388" value="" style="rounded=0;whiteSpace=wrap;html=1;fillColor=#e5dc7b;" vertex="1" parent="1">
          <mxGeometry x="120" y="890" width="10" height="20" as="geometry" />
        </mxCell>
        <mxCell id="YjWWDXaZrfKZDx-xZvoM-389" value="" style="rounded=0;whiteSpace=wrap;html=1;fillColor=#e5dc7b;" vertex="1" parent="1">
          <mxGeometry x="130" y="890" width="10" height="20" as="geometry" />
        </mxCell>
        <mxCell id="YjWWDXaZrfKZDx-xZvoM-390" value="" style="rounded=0;whiteSpace=wrap;html=1;fillColor=#e5dc7b;" vertex="1" parent="1">
          <mxGeometry x="140" y="890" width="10" height="20" as="geometry" />
        </mxCell>
        <mxCell id="YjWWDXaZrfKZDx-xZvoM-391" value="" style="rounded=0;whiteSpace=wrap;html=1;fillColor=#e5dc7b;" vertex="1" parent="1">
          <mxGeometry x="150" y="890" width="10" height="20" as="geometry" />
        </mxCell>
        <mxCell id="YjWWDXaZrfKZDx-xZvoM-392" value="" style="rounded=0;whiteSpace=wrap;html=1;fillColor=#e5dc7b;" vertex="1" parent="1">
          <mxGeometry x="160" y="890" width="10" height="20" as="geometry" />
        </mxCell>
        <mxCell id="YjWWDXaZrfKZDx-xZvoM-393" value="" style="rounded=0;whiteSpace=wrap;html=1;fillColor=#e5dc7b;" vertex="1" parent="1">
          <mxGeometry x="170" y="890" width="10" height="20" as="geometry" />
        </mxCell>
        <mxCell id="YjWWDXaZrfKZDx-xZvoM-394" value="" style="rounded=0;whiteSpace=wrap;html=1;fillColor=#e5dc7b;" vertex="1" parent="1">
          <mxGeometry x="180" y="890" width="10" height="20" as="geometry" />
        </mxCell>
        <mxCell id="YjWWDXaZrfKZDx-xZvoM-395" value="" style="rounded=0;whiteSpace=wrap;html=1;fillColor=#e5dc7b;" vertex="1" parent="1">
          <mxGeometry x="190" y="890" width="10" height="20" as="geometry" />
        </mxCell>
        <mxCell id="YjWWDXaZrfKZDx-xZvoM-396" value="" style="rounded=0;whiteSpace=wrap;html=1;fillColor=#e5dc7b;" vertex="1" parent="1">
          <mxGeometry x="200" y="890" width="10" height="20" as="geometry" />
        </mxCell>
        <mxCell id="YjWWDXaZrfKZDx-xZvoM-397" value="" style="rounded=0;whiteSpace=wrap;html=1;fillColor=#e5dc7b;" vertex="1" parent="1">
          <mxGeometry x="210" y="890" width="10" height="20" as="geometry" />
        </mxCell>
        <mxCell id="YjWWDXaZrfKZDx-xZvoM-398" value="" style="rounded=0;whiteSpace=wrap;html=1;fillColor=#e5dc7b;" vertex="1" parent="1">
          <mxGeometry x="220" y="890" width="10" height="20" as="geometry" />
        </mxCell>
        <mxCell id="YjWWDXaZrfKZDx-xZvoM-399" value="" style="rounded=0;whiteSpace=wrap;html=1;fillColor=#e5dc7b;" vertex="1" parent="1">
          <mxGeometry x="230" y="890" width="10" height="20" as="geometry" />
        </mxCell>
        <mxCell id="YjWWDXaZrfKZDx-xZvoM-400" value="" style="rounded=0;whiteSpace=wrap;html=1;fillColor=#e5dc7b;" vertex="1" parent="1">
          <mxGeometry x="240" y="890" width="10" height="20" as="geometry" />
        </mxCell>
        <mxCell id="YjWWDXaZrfKZDx-xZvoM-401" value="" style="rounded=0;whiteSpace=wrap;html=1;fillColor=#e5dc7b;" vertex="1" parent="1">
          <mxGeometry x="250" y="890" width="10" height="20" as="geometry" />
        </mxCell>
        <mxCell id="YjWWDXaZrfKZDx-xZvoM-402" value="" style="rounded=0;whiteSpace=wrap;html=1;fillColor=#e5dc7b;" vertex="1" parent="1">
          <mxGeometry x="260" y="890" width="10" height="20" as="geometry" />
        </mxCell>
        <mxCell id="YjWWDXaZrfKZDx-xZvoM-403" value="" style="rounded=0;whiteSpace=wrap;html=1;fillColor=#e5dc7b;" vertex="1" parent="1">
          <mxGeometry x="270" y="890" width="10" height="20" as="geometry" />
        </mxCell>
        <mxCell id="YjWWDXaZrfKZDx-xZvoM-404" value="" style="rounded=0;whiteSpace=wrap;html=1;fillColor=#e5dc7b;" vertex="1" parent="1">
          <mxGeometry x="280" y="890" width="10" height="20" as="geometry" />
        </mxCell>
        <mxCell id="YjWWDXaZrfKZDx-xZvoM-405" value="" style="rounded=0;whiteSpace=wrap;html=1;fillColor=#e5dc7b;" vertex="1" parent="1">
          <mxGeometry x="290" y="890" width="10" height="20" as="geometry" />
        </mxCell>
        <mxCell id="YjWWDXaZrfKZDx-xZvoM-406" value="" style="rounded=0;whiteSpace=wrap;html=1;fillColor=#e5dc7b;" vertex="1" parent="1">
          <mxGeometry x="300" y="890" width="10" height="20" as="geometry" />
        </mxCell>
        <mxCell id="YjWWDXaZrfKZDx-xZvoM-407" value="" style="rounded=0;whiteSpace=wrap;html=1;fillColor=#e5dc7b;" vertex="1" parent="1">
          <mxGeometry x="310" y="890" width="10" height="20" as="geometry" />
        </mxCell>
        <mxCell id="YjWWDXaZrfKZDx-xZvoM-408" value="" style="rounded=0;whiteSpace=wrap;html=1;fillColor=#e5dc7b;" vertex="1" parent="1">
          <mxGeometry x="320" y="890" width="10" height="20" as="geometry" />
        </mxCell>
        <mxCell id="YjWWDXaZrfKZDx-xZvoM-409" value="" style="rounded=0;whiteSpace=wrap;html=1;fillColor=#e5dc7b;" vertex="1" parent="1">
          <mxGeometry x="330" y="890" width="10" height="20" as="geometry" />
        </mxCell>
        <mxCell id="YjWWDXaZrfKZDx-xZvoM-410" value="" style="rounded=0;whiteSpace=wrap;html=1;fillColor=#e5dc7b;" vertex="1" parent="1">
          <mxGeometry x="340" y="890" width="10" height="20" as="geometry" />
        </mxCell>
        <mxCell id="YjWWDXaZrfKZDx-xZvoM-411" value="" style="rounded=0;whiteSpace=wrap;html=1;fillColor=#e5dc7b;" vertex="1" parent="1">
          <mxGeometry x="350" y="890" width="10" height="20" as="geometry" />
        </mxCell>
        <mxCell id="YjWWDXaZrfKZDx-xZvoM-412" value="" style="rounded=0;whiteSpace=wrap;html=1;fillColor=#e5dc7b;" vertex="1" parent="1">
          <mxGeometry x="360" y="890" width="10" height="20" as="geometry" />
        </mxCell>
        <mxCell id="YjWWDXaZrfKZDx-xZvoM-413" value="" style="rounded=0;whiteSpace=wrap;html=1;fillColor=#e5dc7b;" vertex="1" parent="1">
          <mxGeometry x="370" y="890" width="10" height="20" as="geometry" />
        </mxCell>
        <mxCell id="YjWWDXaZrfKZDx-xZvoM-414" value="" style="rounded=0;whiteSpace=wrap;html=1;fillColor=#e5dc7b;" vertex="1" parent="1">
          <mxGeometry x="380" y="890" width="10" height="20" as="geometry" />
        </mxCell>
        <mxCell id="YjWWDXaZrfKZDx-xZvoM-415" value="" style="rounded=0;whiteSpace=wrap;html=1;fillColor=#e5dc7b;" vertex="1" parent="1">
          <mxGeometry x="390" y="890" width="10" height="20" as="geometry" />
        </mxCell>
        <mxCell id="YjWWDXaZrfKZDx-xZvoM-416" value="" style="rounded=0;whiteSpace=wrap;html=1;fillColor=#e5dc7b;" vertex="1" parent="1">
          <mxGeometry x="400" y="890" width="10" height="20" as="geometry" />
        </mxCell>
        <mxCell id="YjWWDXaZrfKZDx-xZvoM-417" value="" style="rounded=0;whiteSpace=wrap;html=1;fillColor=#e5dc7b;" vertex="1" parent="1">
          <mxGeometry x="410" y="890" width="10" height="20" as="geometry" />
        </mxCell>
        <mxCell id="YjWWDXaZrfKZDx-xZvoM-418" value="" style="rounded=0;whiteSpace=wrap;html=1;fillColor=#e5dc7b;" vertex="1" parent="1">
          <mxGeometry x="420" y="890" width="10" height="20" as="geometry" />
        </mxCell>
        <mxCell id="YjWWDXaZrfKZDx-xZvoM-419" value="" style="rounded=0;whiteSpace=wrap;html=1;fillColor=#e5dc7b;" vertex="1" parent="1">
          <mxGeometry x="600" y="890" width="10" height="20" as="geometry" />
        </mxCell>
        <mxCell id="YjWWDXaZrfKZDx-xZvoM-420" value="" style="rounded=0;whiteSpace=wrap;html=1;fillColor=#e5dc7b;" vertex="1" parent="1">
          <mxGeometry x="610" y="890" width="10" height="20" as="geometry" />
        </mxCell>
        <mxCell id="YjWWDXaZrfKZDx-xZvoM-421" value="" style="rounded=0;whiteSpace=wrap;html=1;fillColor=#e5dc7b;" vertex="1" parent="1">
          <mxGeometry x="620" y="890" width="10" height="20" as="geometry" />
        </mxCell>
        <mxCell id="YjWWDXaZrfKZDx-xZvoM-422" value="" style="rounded=0;whiteSpace=wrap;html=1;fillColor=#e5dc7b;" vertex="1" parent="1">
          <mxGeometry x="630" y="890" width="10" height="20" as="geometry" />
        </mxCell>
        <mxCell id="YjWWDXaZrfKZDx-xZvoM-423" value="" style="rounded=0;whiteSpace=wrap;html=1;fillColor=#e5dc7b;" vertex="1" parent="1">
          <mxGeometry x="640" y="890" width="10" height="20" as="geometry" />
        </mxCell>
        <mxCell id="YjWWDXaZrfKZDx-xZvoM-424" value="" style="rounded=0;whiteSpace=wrap;html=1;fillColor=#e5dc7b;" vertex="1" parent="1">
          <mxGeometry x="650" y="890" width="10" height="20" as="geometry" />
        </mxCell>
        <mxCell id="YjWWDXaZrfKZDx-xZvoM-425" value="" style="rounded=0;whiteSpace=wrap;html=1;fillColor=#e5dc7b;" vertex="1" parent="1">
          <mxGeometry x="660" y="890" width="10" height="20" as="geometry" />
        </mxCell>
        <mxCell id="YjWWDXaZrfKZDx-xZvoM-426" value="" style="rounded=0;whiteSpace=wrap;html=1;fillColor=#e5dc7b;" vertex="1" parent="1">
          <mxGeometry x="670" y="890" width="10" height="20" as="geometry" />
        </mxCell>
        <mxCell id="YjWWDXaZrfKZDx-xZvoM-427" value="" style="rounded=0;whiteSpace=wrap;html=1;fillColor=#e5dc7b;" vertex="1" parent="1">
          <mxGeometry x="680" y="890" width="10" height="20" as="geometry" />
        </mxCell>
        <mxCell id="YjWWDXaZrfKZDx-xZvoM-428" value="" style="rounded=0;whiteSpace=wrap;html=1;fillColor=#e5dc7b;" vertex="1" parent="1">
          <mxGeometry x="690" y="890" width="10" height="20" as="geometry" />
        </mxCell>
        <mxCell id="YjWWDXaZrfKZDx-xZvoM-429" value="" style="rounded=0;whiteSpace=wrap;html=1;fillColor=#e5dc7b;" vertex="1" parent="1">
          <mxGeometry x="700" y="890" width="10" height="20" as="geometry" />
        </mxCell>
        <mxCell id="YjWWDXaZrfKZDx-xZvoM-430" value="" style="rounded=0;whiteSpace=wrap;html=1;fillColor=#e5dc7b;" vertex="1" parent="1">
          <mxGeometry x="710" y="890" width="10" height="20" as="geometry" />
        </mxCell>
        <mxCell id="YjWWDXaZrfKZDx-xZvoM-431" value="" style="rounded=0;whiteSpace=wrap;html=1;fillColor=#e5dc7b;" vertex="1" parent="1">
          <mxGeometry x="720" y="890" width="10" height="20" as="geometry" />
        </mxCell>
        <mxCell id="YjWWDXaZrfKZDx-xZvoM-432" value="" style="rounded=0;whiteSpace=wrap;html=1;fillColor=#e5dc7b;" vertex="1" parent="1">
          <mxGeometry x="730" y="890" width="10" height="20" as="geometry" />
        </mxCell>
        <mxCell id="YjWWDXaZrfKZDx-xZvoM-433" value="" style="rounded=0;whiteSpace=wrap;html=1;fillColor=#e5dc7b;" vertex="1" parent="1">
          <mxGeometry x="740" y="890" width="10" height="20" as="geometry" />
        </mxCell>
        <mxCell id="YjWWDXaZrfKZDx-xZvoM-434" value="" style="rounded=0;whiteSpace=wrap;html=1;fillColor=#e5dc7b;" vertex="1" parent="1">
          <mxGeometry x="750" y="890" width="10" height="20" as="geometry" />
        </mxCell>
        <mxCell id="YjWWDXaZrfKZDx-xZvoM-435" value="" style="rounded=0;whiteSpace=wrap;html=1;fillColor=#e5dc7b;" vertex="1" parent="1">
          <mxGeometry x="760" y="890" width="10" height="20" as="geometry" />
        </mxCell>
        <mxCell id="YjWWDXaZrfKZDx-xZvoM-436" value="" style="rounded=0;whiteSpace=wrap;html=1;fillColor=#e5dc7b;" vertex="1" parent="1">
          <mxGeometry x="770" y="890" width="10" height="20" as="geometry" />
        </mxCell>
        <mxCell id="YjWWDXaZrfKZDx-xZvoM-437" value="" style="rounded=0;whiteSpace=wrap;html=1;fillColor=#e5dc7b;" vertex="1" parent="1">
          <mxGeometry x="780" y="890" width="10" height="20" as="geometry" />
        </mxCell>
        <mxCell id="YjWWDXaZrfKZDx-xZvoM-438" value="" style="rounded=0;whiteSpace=wrap;html=1;fillColor=#e5dc7b;" vertex="1" parent="1">
          <mxGeometry x="790" y="890" width="10" height="20" as="geometry" />
        </mxCell>
        <mxCell id="YjWWDXaZrfKZDx-xZvoM-439" value="" style="rounded=0;whiteSpace=wrap;html=1;fillColor=#e5dc7b;" vertex="1" parent="1">
          <mxGeometry x="800" y="890" width="10" height="20" as="geometry" />
        </mxCell>
        <mxCell id="YjWWDXaZrfKZDx-xZvoM-440" value="" style="rounded=0;whiteSpace=wrap;html=1;fillColor=#e5dc7b;" vertex="1" parent="1">
          <mxGeometry x="810" y="890" width="10" height="20" as="geometry" />
        </mxCell>
        <mxCell id="YjWWDXaZrfKZDx-xZvoM-441" value="" style="rounded=0;whiteSpace=wrap;html=1;fillColor=#e5dc7b;" vertex="1" parent="1">
          <mxGeometry x="820" y="890" width="10" height="20" as="geometry" />
        </mxCell>
        <mxCell id="YjWWDXaZrfKZDx-xZvoM-442" value="" style="rounded=0;whiteSpace=wrap;html=1;fillColor=#e5dc7b;" vertex="1" parent="1">
          <mxGeometry x="830" y="890" width="10" height="20" as="geometry" />
        </mxCell>
        <mxCell id="YjWWDXaZrfKZDx-xZvoM-443" value="" style="rounded=0;whiteSpace=wrap;html=1;fillColor=#e5dc7b;" vertex="1" parent="1">
          <mxGeometry x="840" y="890" width="10" height="20" as="geometry" />
        </mxCell>
        <mxCell id="YjWWDXaZrfKZDx-xZvoM-444" value="" style="rounded=0;whiteSpace=wrap;html=1;fillColor=#e5dc7b;" vertex="1" parent="1">
          <mxGeometry x="850" y="890" width="10" height="20" as="geometry" />
        </mxCell>
        <mxCell id="YjWWDXaZrfKZDx-xZvoM-445" value="" style="rounded=0;whiteSpace=wrap;html=1;fillColor=#e5dc7b;" vertex="1" parent="1">
          <mxGeometry x="860" y="890" width="10" height="20" as="geometry" />
        </mxCell>
        <mxCell id="YjWWDXaZrfKZDx-xZvoM-446" value="" style="rounded=0;whiteSpace=wrap;html=1;fillColor=#e5dc7b;" vertex="1" parent="1">
          <mxGeometry x="870" y="890" width="10" height="20" as="geometry" />
        </mxCell>
        <mxCell id="YjWWDXaZrfKZDx-xZvoM-447" value="" style="rounded=0;whiteSpace=wrap;html=1;fillColor=#e5dc7b;" vertex="1" parent="1">
          <mxGeometry x="880" y="890" width="10" height="20" as="geometry" />
        </mxCell>
        <mxCell id="YjWWDXaZrfKZDx-xZvoM-448" value="" style="rounded=0;whiteSpace=wrap;html=1;fillColor=#e5dc7b;" vertex="1" parent="1">
          <mxGeometry x="890" y="890" width="10" height="20" as="geometry" />
        </mxCell>
        <mxCell id="YjWWDXaZrfKZDx-xZvoM-449" value="" style="rounded=0;whiteSpace=wrap;html=1;fillColor=#e5dc7b;" vertex="1" parent="1">
          <mxGeometry x="900" y="890" width="10" height="20" as="geometry" />
        </mxCell>
        <mxCell id="YjWWDXaZrfKZDx-xZvoM-450" value="" style="rounded=0;whiteSpace=wrap;html=1;fillColor=#e5dc7b;" vertex="1" parent="1">
          <mxGeometry x="910" y="890" width="10" height="20" as="geometry" />
        </mxCell>
        <mxCell id="YjWWDXaZrfKZDx-xZvoM-451" value="" style="rounded=0;whiteSpace=wrap;html=1;fillColor=#e5dc7b;" vertex="1" parent="1">
          <mxGeometry x="920" y="890" width="10" height="20" as="geometry" />
        </mxCell>
        <mxCell id="YjWWDXaZrfKZDx-xZvoM-452" value="" style="rounded=0;whiteSpace=wrap;html=1;fillColor=#e5dc7b;" vertex="1" parent="1">
          <mxGeometry x="930" y="890" width="10" height="20" as="geometry" />
        </mxCell>
        <mxCell id="YjWWDXaZrfKZDx-xZvoM-453" value="" style="rounded=0;whiteSpace=wrap;html=1;fillColor=#e5dc7b;" vertex="1" parent="1">
          <mxGeometry x="940" y="890" width="10" height="20" as="geometry" />
        </mxCell>
        <mxCell id="YjWWDXaZrfKZDx-xZvoM-454" value="" style="rounded=0;whiteSpace=wrap;html=1;fillColor=#e5dc7b;" vertex="1" parent="1">
          <mxGeometry x="950" y="890" width="10" height="20" as="geometry" />
        </mxCell>
        <mxCell id="YjWWDXaZrfKZDx-xZvoM-455" value="" style="rounded=0;whiteSpace=wrap;html=1;fillColor=#e5dc7b;" vertex="1" parent="1">
          <mxGeometry x="960" y="890" width="10" height="20" as="geometry" />
        </mxCell>
        <mxCell id="YjWWDXaZrfKZDx-xZvoM-456" value="" style="rounded=0;whiteSpace=wrap;html=1;fillColor=#e5dc7b;" vertex="1" parent="1">
          <mxGeometry x="970" y="890" width="10" height="20" as="geometry" />
        </mxCell>
        <mxCell id="YjWWDXaZrfKZDx-xZvoM-457" value="" style="rounded=0;whiteSpace=wrap;html=1;fillColor=#e5dc7b;" vertex="1" parent="1">
          <mxGeometry x="980" y="890" width="10" height="20" as="geometry" />
        </mxCell>
        <mxCell id="YjWWDXaZrfKZDx-xZvoM-458" value="" style="shape=or;whiteSpace=wrap;html=1;direction=north;rotation=-180;" vertex="1" parent="1">
          <mxGeometry x="530" y="890" width="20" height="30" as="geometry" />
        </mxCell>
        <mxCell id="YjWWDXaZrfKZDx-xZvoM-459" value="" style="rounded=0;whiteSpace=wrap;html=1;fillColor=#e5dc7b;" vertex="1" parent="1">
          <mxGeometry x="570" y="890" width="10" height="20" as="geometry" />
        </mxCell>
        <mxCell id="YjWWDXaZrfKZDx-xZvoM-460" value="" style="rounded=0;whiteSpace=wrap;html=1;fillColor=#e5dc7b;" vertex="1" parent="1">
          <mxGeometry x="580" y="890" width="10" height="20" as="geometry" />
        </mxCell>
        <mxCell id="YjWWDXaZrfKZDx-xZvoM-461" value="" style="rounded=0;whiteSpace=wrap;html=1;fillColor=#e5dc7b;" vertex="1" parent="1">
          <mxGeometry x="590" y="890" width="10" height="20" as="geometry" />
        </mxCell>
        <mxCell id="YjWWDXaZrfKZDx-xZvoM-462" value="" style="rounded=0;whiteSpace=wrap;html=1;fillColor=#e5dc7b;" vertex="1" parent="1">
          <mxGeometry x="430" y="890" width="10" height="20" as="geometry" />
        </mxCell>
        <mxCell id="YjWWDXaZrfKZDx-xZvoM-463" value="" style="rounded=0;whiteSpace=wrap;html=1;fillColor=#e5dc7b;" vertex="1" parent="1">
          <mxGeometry x="440" y="890" width="10" height="20" as="geometry" />
        </mxCell>
        <mxCell id="YjWWDXaZrfKZDx-xZvoM-464" value="&lt;font style=&quot;font-size: 14px;&quot; color=&quot;#ababab&quot;&gt;&lt;b&gt;PMIC&lt;/b&gt;&lt;/font&gt;" style="rounded=0;whiteSpace=wrap;html=1;strokeColor=#454744;fillColor=#464646;direction=south;" vertex="1" parent="1">
          <mxGeometry x="490" y="970" width="75" height="50" as="geometry" />
        </mxCell>
        <mxCell id="YjWWDXaZrfKZDx-xZvoM-465" value="" style="rounded=0;whiteSpace=wrap;html=1;fillColor=#e5dc7b;" vertex="1" parent="1">
          <mxGeometry x="450" y="890" width="10" height="20" as="geometry" />
        </mxCell>
        <mxCell id="YjWWDXaZrfKZDx-xZvoM-466" value="" style="rounded=0;whiteSpace=wrap;html=1;fillColor=#e5dc7b;" vertex="1" parent="1">
          <mxGeometry x="460" y="890" width="10" height="20" as="geometry" />
        </mxCell>
        <mxCell id="YjWWDXaZrfKZDx-xZvoM-467" value="" style="rounded=0;whiteSpace=wrap;html=1;fillColor=#e5dc7b;" vertex="1" parent="1">
          <mxGeometry x="470" y="890" width="10" height="20" as="geometry" />
        </mxCell>
        <mxCell id="YjWWDXaZrfKZDx-xZvoM-468" value="" style="rounded=0;whiteSpace=wrap;html=1;fillColor=#e5dc7b;" vertex="1" parent="1">
          <mxGeometry x="480" y="890" width="10" height="20" as="geometry" />
        </mxCell>
        <mxCell id="YjWWDXaZrfKZDx-xZvoM-469" value="" style="rounded=0;whiteSpace=wrap;html=1;fillColor=#e5dc7b;" vertex="1" parent="1">
          <mxGeometry x="490" y="890" width="10" height="20" as="geometry" />
        </mxCell>
        <mxCell id="YjWWDXaZrfKZDx-xZvoM-470" value="" style="rounded=0;whiteSpace=wrap;html=1;fillColor=#e5dc7b;" vertex="1" parent="1">
          <mxGeometry x="500" y="890" width="10" height="20" as="geometry" />
        </mxCell>
        <mxCell id="YjWWDXaZrfKZDx-xZvoM-471" value="" style="rounded=0;whiteSpace=wrap;html=1;fillColor=#e5dc7b;" vertex="1" parent="1">
          <mxGeometry x="510" y="890" width="10" height="20" as="geometry" />
        </mxCell>
        <mxCell id="YjWWDXaZrfKZDx-xZvoM-472" value="&lt;font style=&quot;font-size: 14px;&quot; color=&quot;#ababab&quot;&gt;DQ&lt;/font&gt;&lt;div style=&quot;font-size: 14px;&quot;&gt;&lt;font color=&quot;#ababab&quot;&gt;x8&lt;/font&gt;&lt;/div&gt;" style="rounded=0;whiteSpace=wrap;html=1;strokeColor=#454744;fillColor=#464646;" vertex="1" parent="1">
          <mxGeometry x="65" y="950" width="60" height="80" as="geometry" />
        </mxCell>
        <mxCell id="YjWWDXaZrfKZDx-xZvoM-473" value="&lt;font style=&quot;font-size: 14px;&quot; color=&quot;#ababab&quot;&gt;DQ&lt;/font&gt;&lt;div style=&quot;font-size: 14px;&quot;&gt;&lt;font color=&quot;#ababab&quot;&gt;x8&lt;/font&gt;&lt;/div&gt;" style="rounded=0;whiteSpace=wrap;html=1;strokeColor=#454744;fillColor=#464646;" vertex="1" parent="1">
          <mxGeometry x="145" y="950" width="60" height="80" as="geometry" />
        </mxCell>
        <mxCell id="YjWWDXaZrfKZDx-xZvoM-474" value="&lt;font style=&quot;font-size: 14px;&quot; color=&quot;#ababab&quot;&gt;DQ&lt;/font&gt;&lt;div style=&quot;font-size: 14px;&quot;&gt;&lt;font color=&quot;#ababab&quot;&gt;x8&lt;/font&gt;&lt;/div&gt;" style="rounded=0;whiteSpace=wrap;html=1;strokeColor=#454744;fillColor=#464646;" vertex="1" parent="1">
          <mxGeometry x="225" y="950" width="60" height="80" as="geometry" />
        </mxCell>
        <mxCell id="YjWWDXaZrfKZDx-xZvoM-475" value="&lt;font style=&quot;font-size: 14px;&quot; color=&quot;#ababab&quot;&gt;DQ&lt;/font&gt;&lt;div style=&quot;font-size: 14px;&quot;&gt;&lt;font color=&quot;#ababab&quot;&gt;x8&lt;/font&gt;&lt;/div&gt;" style="rounded=0;whiteSpace=wrap;html=1;strokeColor=#454744;fillColor=#464646;" vertex="1" parent="1">
          <mxGeometry x="305" y="950" width="60" height="80" as="geometry" />
        </mxCell>
        <mxCell id="YjWWDXaZrfKZDx-xZvoM-476" value="&lt;font style=&quot;font-size: 14px;&quot; color=&quot;#ababab&quot;&gt;ECC&lt;/font&gt;&lt;div style=&quot;font-size: 14px;&quot;&gt;&lt;font color=&quot;#ababab&quot;&gt;x8&lt;/font&gt;&lt;/div&gt;" style="rounded=0;whiteSpace=wrap;html=1;strokeColor=#454744;fillColor=#464646;" vertex="1" parent="1">
          <mxGeometry x="385" y="950" width="60" height="80" as="geometry" />
        </mxCell>
        <mxCell id="YjWWDXaZrfKZDx-xZvoM-477" value="&lt;font style=&quot;font-size: 14px;&quot; color=&quot;#ababab&quot;&gt;ECC&lt;/font&gt;&lt;div style=&quot;font-size: 14px;&quot;&gt;&lt;font color=&quot;#ababab&quot;&gt;x8&lt;/font&gt;&lt;/div&gt;" style="rounded=0;whiteSpace=wrap;html=1;strokeColor=#454744;fillColor=#464646;" vertex="1" parent="1">
          <mxGeometry x="605" y="950" width="60" height="80" as="geometry" />
        </mxCell>
        <mxCell id="YjWWDXaZrfKZDx-xZvoM-478" value="&lt;font style=&quot;font-size: 14px;&quot; color=&quot;#ababab&quot;&gt;DQ&lt;/font&gt;&lt;div style=&quot;font-size: 14px;&quot;&gt;&lt;font color=&quot;#ababab&quot;&gt;x8&lt;/font&gt;&lt;/div&gt;" style="rounded=0;whiteSpace=wrap;html=1;strokeColor=#454744;fillColor=#464646;" vertex="1" parent="1">
          <mxGeometry x="685" y="950" width="60" height="80" as="geometry" />
        </mxCell>
        <mxCell id="YjWWDXaZrfKZDx-xZvoM-479" value="&lt;font style=&quot;font-size: 14px;&quot; color=&quot;#ababab&quot;&gt;DQ&lt;/font&gt;&lt;div style=&quot;font-size: 14px;&quot;&gt;&lt;font color=&quot;#ababab&quot;&gt;x8&lt;/font&gt;&lt;/div&gt;" style="rounded=0;whiteSpace=wrap;html=1;strokeColor=#454744;fillColor=#464646;" vertex="1" parent="1">
          <mxGeometry x="765" y="950" width="60" height="80" as="geometry" />
        </mxCell>
        <mxCell id="YjWWDXaZrfKZDx-xZvoM-480" value="&lt;font style=&quot;font-size: 14px;&quot; color=&quot;#ababab&quot;&gt;DQ&lt;/font&gt;&lt;div style=&quot;font-size: 14px;&quot;&gt;&lt;font color=&quot;#ababab&quot;&gt;x8&lt;/font&gt;&lt;/div&gt;" style="rounded=0;whiteSpace=wrap;html=1;strokeColor=#454744;fillColor=#464646;" vertex="1" parent="1">
          <mxGeometry x="845" y="950" width="60" height="80" as="geometry" />
        </mxCell>
        <mxCell id="YjWWDXaZrfKZDx-xZvoM-481" value="&lt;font style=&quot;font-size: 14px;&quot; color=&quot;#ababab&quot;&gt;DQ&lt;/font&gt;&lt;div style=&quot;font-size: 14px;&quot;&gt;&lt;font color=&quot;#ababab&quot;&gt;x8&lt;/font&gt;&lt;/div&gt;" style="rounded=0;whiteSpace=wrap;html=1;strokeColor=#454744;fillColor=#464646;" vertex="1" parent="1">
          <mxGeometry x="925" y="950" width="60" height="80" as="geometry" />
        </mxCell>
        <mxCell id="YjWWDXaZrfKZDx-xZvoM-482" value="&lt;font style=&quot;font-size: 14px;&quot; color=&quot;#ababab&quot;&gt;&lt;b&gt;SPD&lt;/b&gt;&lt;/font&gt;&lt;div&gt;&lt;font color=&quot;#ababab&quot;&gt;&lt;span style=&quot;font-size: 14px;&quot;&gt;&lt;b&gt;HUB&lt;/b&gt;&lt;/span&gt;&lt;/font&gt;&lt;/div&gt;" style="rounded=0;whiteSpace=wrap;html=1;strokeColor=#454744;fillColor=#464646;direction=south;" vertex="1" parent="1">
          <mxGeometry x="502.5" y="1024" width="50" height="40" as="geometry" />
        </mxCell>
        <mxCell id="YjWWDXaZrfKZDx-xZvoM-483" value="" style="rounded=0;whiteSpace=wrap;html=1;strokeColor=#454744;fillColor=#464646;direction=south;" vertex="1" parent="1">
          <mxGeometry x="570" y="970" width="10" height="10" as="geometry" />
        </mxCell>
        <mxCell id="YjWWDXaZrfKZDx-xZvoM-484" value="" style="rounded=0;whiteSpace=wrap;html=1;strokeColor=#454744;fillColor=#464646;direction=south;" vertex="1" parent="1">
          <mxGeometry x="570" y="982" width="10" height="10" as="geometry" />
        </mxCell>
        <mxCell id="YjWWDXaZrfKZDx-xZvoM-485" value="" style="rounded=0;whiteSpace=wrap;html=1;strokeColor=#454744;fillColor=#464646;direction=south;" vertex="1" parent="1">
          <mxGeometry x="570" y="994" width="10" height="18" as="geometry" />
        </mxCell>
        <mxCell id="YjWWDXaZrfKZDx-xZvoM-486" value="" style="rounded=0;whiteSpace=wrap;html=1;strokeColor=#454744;fillColor=#464646;direction=south;" vertex="1" parent="1">
          <mxGeometry x="583" y="976" width="10" height="10" as="geometry" />
        </mxCell>
        <mxCell id="YjWWDXaZrfKZDx-xZvoM-487" value="" style="rounded=0;whiteSpace=wrap;html=1;strokeColor=#454744;fillColor=#464646;direction=south;" vertex="1" parent="1">
          <mxGeometry x="583" y="989" width="10" height="10" as="geometry" />
        </mxCell>
        <mxCell id="YjWWDXaZrfKZDx-xZvoM-488" value="" style="rounded=0;whiteSpace=wrap;html=1;strokeColor=#454744;fillColor=#464646;direction=south;" vertex="1" parent="1">
          <mxGeometry x="460" y="998" width="10" height="18" as="geometry" />
        </mxCell>
        <mxCell id="YjWWDXaZrfKZDx-xZvoM-489" value="" style="rounded=0;whiteSpace=wrap;html=1;strokeColor=#454744;fillColor=#464646;direction=south;" vertex="1" parent="1">
          <mxGeometry x="473" y="976" width="10" height="10" as="geometry" />
        </mxCell>
        <mxCell id="YjWWDXaZrfKZDx-xZvoM-490" value="" style="rounded=0;whiteSpace=wrap;html=1;strokeColor=#454744;fillColor=#464646;direction=south;" vertex="1" parent="1">
          <mxGeometry x="473" y="989" width="13" height="11" as="geometry" />
        </mxCell>
        <mxCell id="YjWWDXaZrfKZDx-xZvoM-491" value="" style="rounded=0;whiteSpace=wrap;html=1;strokeColor=#454744;fillColor=#464646;direction=south;" vertex="1" parent="1">
          <mxGeometry x="473" y="1003" width="13" height="11" as="geometry" />
        </mxCell>
        <mxCell id="YjWWDXaZrfKZDx-xZvoM-492" value="" style="rounded=0;whiteSpace=wrap;html=1;strokeColor=#454744;fillColor=#464646;direction=south;" vertex="1" parent="1">
          <mxGeometry x="460" y="977" width="10" height="18" as="geometry" />
        </mxCell>
      </root>
    </mxGraphModel>
  </diagram>
</mxfile>
